<svg xmlns="http://www.w3.org/2000/svg" xmlns:xlink="http://www.w3.org/1999/xlink" width="64" height="63" viewBox="0 0 64 63"><defs><path id="8cwfa" d="M314 5133.2a22 22 0 0 1-43.17 6.01l-7.58 1.97a1 1 0 1 1-.52-1.93l7.64-1.98a22 22 0 0 1 11.1-23.4l.92 1.78a20 20 0 0 0-10.07 21.11l38.62-10a20.07 20.07 0 0 0-9.33-11.1l.92-1.79a22.08 22.08 0 0 1 10.35 12.4l7.87-2.04a1 1 0 1 1 .52 1.93l-7.84 2.03c.37 1.61.57 3.29.57 5.01zm-22 20.01a20 20 0 0 0 19.49-24.52l-38.72 10.02a20.01 20.01 0 0 0 19.23 14.5zm8.64-43l-8.64 17-8.64-17a10 10 0 1 1 17.28 0zm-.64-5.02a8 8 0 1 0-15.11 3.66h-.01l7.12 14.35 7.12-14.35h-.01c.57-1.1.89-2.34.89-3.66z"/></defs><g><g transform="translate(-260 -5094)"><use fill="#6f6f6f" xlink:href="#8cwfa"/></g></g></svg>