<?xml version="1.0" encoding="iso-8859-1"?>
<!-- Generator: Adobe Illustrator 19.0.0, SVG Export Plug-In . SVG Version: 6.00 Build 0)  -->
<svg xmlns="http://www.w3.org/2000/svg" xmlns:xlink="http://www.w3.org/1999/xlink" version="1.1" id="Capa_1" x="0px" y="0px" viewBox="0 0 512 512" style="enable-background:new 0 0 512 512;" xml:space="preserve" width="512px" height="512px">
<g>
	<g>
		<path d="M497,482V347c0-24.813-20.187-45-45-45V165c0-24.813-20.187-45-45-45h-94.989C330.587,102.09,346,83.227,346,57.273    C346,26.026,324.065,0,293.5,0c-14.758,0-27.699,6.229-37.764,18.094C246.925,8.067,234.33,0,217.5,0    C186.895,0,165,26.07,165,57.273c0,24.481,13.685,42.694,34.767,62.727H105c-24.813,0-45,20.187-45,45v137    c-24.813,0-45,20.187-45,45v135c-8.284,0-15,6.716-15,15s6.716,15,15,15c24.182,0,458.122,0,482,0c8.284,0,15-6.716,15-15    S505.284,482,497,482z M195,57.273C195,44.052,202.886,30,217.5,30c16.806,0,24.071,22.863,24.118,23.011    c1.889,6.376,7.746,10.739,14.38,10.739c0.069,0,0.139,0,0.208-0.001c6.719-0.092,12.557-4.641,14.287-11.134    C270.554,52.389,276.986,30,293.5,30c14.614,0,22.5,14.052,22.5,27.273c0,19.413-17.74,35.573-48.714,62.727h-22.579l-1.168-1.022    C211.644,91.082,195,75.668,195,57.273z M90,165c0-8.271,6.729-15,15-15c10.387,0,291.655,0,302,0c8.271,0,15,6.729,15,15v15    c0,16.542-13.458,30-30,30c-16.804,0-31-13.738-31-30c0-8.284-6.716-15-15-15s-15,6.716-15,15c0,16.542-13.458,30-30,30    s-30-13.458-30-30c0-8.284-6.716-15-15-15s-15,6.716-15,15c0,16.262-14.196,30-31,30c-16.542,0-30-13.458-30-30    c0-8.284-6.716-15-15-15s-15,6.716-15,15c0,16.542-13.458,30-30,30s-30-13.458-30-30V165z M90,231.928    c8.833,5.123,19.075,8.072,30,8.072c17.901,0,33.997-7.881,45-20.354C176.003,232.119,192.099,240,210,240    c16.003,0,31.19-6.185,42.765-17.415c1.057-1.025,2.07-2.079,3.04-3.162C266.813,232.026,282.992,240,301,240    s34.188-7.974,45.195-20.577c0.97,1.083,1.983,2.137,3.04,3.162C360.81,233.815,375.997,240,392,240    c10.925,0,21.167-2.949,30-8.072V302H90V231.928z M467,482H45v-68.072C53.833,419.051,64.075,422,75,422    c17.901,0,33.997-7.881,45-20.354C131.003,414.119,147.099,422,165,422c18.008,0,34.188-7.974,45.195-20.577    c0.97,1.083,1.983,2.137,3.04,3.162C224.81,415.815,239.997,422,256,422c17.901,0,33.997-7.881,45-20.354    C312.003,414.119,328.099,422,346,422c16.003,0,31.19-6.185,42.765-17.415c1.057-1.025,2.07-2.079,3.04-3.162    C402.813,414.026,418.992,422,437,422c10.925,0,21.167-2.949,30-8.072V482z M467,362c0,16.542-13.458,30-30,30s-30-13.458-30-30    c0-8.284-6.716-15-15-15s-15,6.716-15,15c0,16.262-14.196,30-31,30c-16.542,0-30-13.458-30-30c0-8.284-6.716-15-15-15    s-15,6.716-15,15c0,16.542-13.458,30-30,30c-16.804,0-31-13.738-31-30c0-8.284-6.716-15-15-15s-15,6.716-15,15    c0,16.542-13.458,30-30,30s-30-13.458-30-30c0-8.284-6.716-15-15-15s-15,6.716-15,15c0,16.542-13.458,30-30,30s-30-13.458-30-30    v-15c0-8.271,6.729-15,15-15c10.209,0,374.216,0,392,0c8.271,0,15,6.729,15,15V362z" fill="#3a3a3a"/>
	</g>
</g>
<g>
</g>
<g>
</g>
<g>
</g>
<g>
</g>
<g>
</g>
<g>
</g>
<g>
</g>
<g>
</g>
<g>
</g>
<g>
</g>
<g>
</g>
<g>
</g>
<g>
</g>
<g>
</g>
<g>
</g>
</svg>
