<?xml version="1.0" standalone="no"?>
<!DOCTYPE svg PUBLIC "-//W3C//DTD SVG 1.1//EN" "http://www.w3.org/Graphics/SVG/1.1/DTD/svg11.dtd">
<svg xmlns="http://www.w3.org/2000/svg">
<defs >
<font id="PlayfairDisplaySC" horiz-adv-x="572" ><font-face
    font-family="Playfair Display SC"
    units-per-em="1000"
    panose-1="0 0 5 0 0 0 0 0 0 0"
    ascent="1082"
    descent="-251"
    alphabetic="0" />
<glyph unicode=" " glyph-name="space" horiz-adv-x="253" />
<glyph unicode="!" glyph-name="exclam" horiz-adv-x="279" d="M121 287T145 453Q161 552 166 583Q170 602 182 612T211 622Q231 622 243 610T256 578Q256 571 253 560Q245 529 208 439Q147 293 121 196L103 199Q121 287 145 453ZM17 67T39 90T91 114Q114 114
128 99T142 62Q142 32 119 9T67 -14Q45 -14 31 0T17 37Q17 67 39 90Z" />
<glyph unicode="&quot;" glyph-name="quotedbl" horiz-adv-x="296" d="M233 679T226 661T200 610Q174 565 154 518H140Q147 571 151 618Q154 661 160 688Q165 709 176 719T202 730Q218 730 225 721T233 697Q233 679 226 661ZM342 679T335 661T309 610Q283 565
263 518H249Q256 571 260 618Q263 661 269 688Q274 709 285 719T311 730Q327 730 334 721T342 697Q342 679 335 661Z" />
<glyph unicode="#" glyph-name="numbersign" horiz-adv-x="639" d="M481 434L404 267H547L537 247H395L327 101H303L371 247H208L140 101H116L184 247H37L46 267H193L270 434H124L132 454H279L348 602H372L303 454H466L535 602H559L490 454H633L625 434H481ZM457
434H294L217 267H380L457 434Z" />
<glyph unicode="$" glyph-name="dollar" horiz-adv-x="573" d="M526 549T542 520T559 459Q559 427 543 404T499 380Q474 380 461 399T448 445Q448 474 458 498T487 551Q463 575 421 590L351 327Q411 287 443 250T476 160Q476 84 413 40T260 -12L236 -102H216L240
-14H224Q190 -14 164 -8L139 -102H119L145 -3Q119 5 101 16T61 44Q39 61 24 89T9 149Q9 181 25 204T69 228Q94 228 107 209T120 163Q120 134 110 110T81 57Q108 31 151 17L224 291Q174 327 148 362T121 447Q121 521 176 566T312 620L336 710H356L332 622H344Q383
622 408 615L433 710H453L426 610Q452 602 470 591T507 564Q526 549 542 520ZM402 595Q372 603 340 603H327L269 383Q288 368 334 338L402 595ZM202 444T252 397L307 601Q259 594 231 568T202 497Q202 444 252 397ZM245 6L306 233Q289 247 264 264L241 280L169
12Q196 6 228 6H245ZM373 171T322 219L265 8Q373 23 373 113Q373 171 322 219Z" />
<glyph unicode="%" glyph-name="percent" horiz-adv-x="766" d="M839 811L6 -55L-9 -42L824 824L839 811ZM112 587T139 640T214 727T319 761Q372 761 401 734T430 657Q430 604 403 551T329 464T224 430Q171 430 142 457T112 534Q112 587 139 640ZM271 743T241
703T195 609T179 515Q179 448 231 448Q271 448 301 488T347 582T363 677Q363 710 350 726T311 743Q271 743 241 703ZM376 143T403 196T478 283T583 317Q636 317 665 290T694 213Q694 160 667 107T593 20T488 -14Q435 -14 406 13T376 90Q376 143 403 196ZM535 299T505
259T459 165T443 71Q443 4 495 4Q535 4 565 44T611 138T627 233Q627 266 614 282T575 299Q535 299 505 259Z" />
<glyph unicode="&amp;" glyph-name="ampersand" horiz-adv-x="793" d="M748 668T782 639T816 552Q816 499 786 461T694 393Q675 384 653 376T621 364L560 341Q656 311 656 216Q656 146 607 94T477 14T305 -14Q226 -14 162 7T60 70T23 169Q23 244 84 304T238 388Q201
408 185 434T168 489Q168 528 197 558T270 605T361 622Q415 622 448 599T482 539Q482 507 457 489T397 470V487Q425 487 443 500T462 539Q462 568 436 587T366 607Q306 607 268 570T230 476Q230 431 252 394Q288 400 315 400Q351 400 351 379Q351 369 342 364T320
358Q295 358 251 380Q183 362 141 316T98 211Q98 138 161 99T323 60Q388 60 459 77T580 132T630 230Q630 307 540 333Q512 322 481 308Q414 279 390 260T366 214Q366 188 383 175T428 161Q473 161 501 194L511 183Q479 145 426 145Q388 145 364 165T339 229Q339
268 360 296T419 345T515 389Q518 390 577 412T685 456Q731 477 760 502T789 568Q789 606 761 629T690 653Q665 653 658 644Q668 638 673 628T679 606Q679 583 659 566T613 549Q593 549 581 560T568 591Q568 612 582 628T618 654Q650 668 691 668Q748 668 782 639Z"
/>
<glyph unicode="&apos;" glyph-name="quotesingle" horiz-adv-x="187" d="M233 679T226 661T200 610Q174 565 154 518H140Q147 571 151 618Q154 661 160 688Q165 709 176 719T202 730Q218 730 225 721T233 697Q233 679 226 661Z" />
<glyph unicode="(" glyph-name="parenleft" horiz-adv-x="335" d="M259 544T188 444T116 212Q116 146 142 87T224 -17L211 -32Q125 27 82 85T39 223Q39 335 135 447T382 640L392 627Q259 544 188 444Z" />
<glyph unicode=")" glyph-name="parenright" horiz-adv-x="335" d="M81 64T152 164T224 396Q224 462 198 521T116 625L129 640Q215 581 258 523T301 385Q301 273 205 161T-42 -32L-52 -19Q81 64 152 164Z" />
<glyph unicode="*" glyph-name="asterisk" horiz-adv-x="495" d="M512 617T512 614Q512 602 502 589T469 565Q450 556 423 548T365 533L310 519Q355 506 365 503Q391 495 414 488T449 472Q473 457 473 436Q473 423 464 412Q453 396 433 396Q418 396 400 408Q387
416 376 428T346 464Q325 491 308 510L311 446Q313 408 313 394Q313 381 311 361Q304 333 290 320T260 307Q249 307 242 314T234 339Q234 349 237 361Q240 381 251 405T284 474L304 515H303Q287 502 274 491T251 472Q226 451 204 434T165 407Q143 396 126 396Q106
396 99 413Q97 419 97 422Q97 447 140 471Q158 480 185 487T242 503Q282 512 298 517Q289 520 242 534Q209 543 191 549T160 564Q136 579 136 600Q136 614 145 624Q156 640 176 640Q191 640 209 628Q222 620 233 608T264 571Q291 537 304 522Q302 542 302 550Q296
620 296 639Q296 659 299 675Q305 703 319 716T348 729Q360 729 367 721T375 697Q375 687 372 675Q369 657 361 637T334 578Q327 564 309 524Q320 533 333 543T359 565Q383 585 405 602T444 629Q466 640 483 640Q503 640 510 623Q512 617 512 614Z" />
<glyph unicode="+" glyph-name="plus" horiz-adv-x="585" d="M296 370L363 606H399L332 370H564L555 340H323L256 105H220L287 340H54L63 370H296Z" />
<glyph unicode="," glyph-name="comma" horiz-adv-x="252" d="M129 2T90 -49T-18 -134L-23 -120Q24 -91 52 -57T83 11Q54 -14 31 -14Q13 -14 3 -5T-7 21Q-7 42 6 64T41 100T85 114Q107 114 118 97T129 55Q129 2 90 -49Z" />
<glyph unicode="-" glyph-name="hyphen" horiz-adv-x="521" d="M449 323L434 265H73L88 323H449Z" />
<glyph unicode="." glyph-name="period" horiz-adv-x="244" d="M-1 67T21 90T73 114Q96 114 110 99T124 62Q124 32 101 9T49 -14Q27 -14 13 0T-1 37Q-1 67 21 90Z" />
<glyph unicode="/" glyph-name="slash" horiz-adv-x="468" d="M508 722H541L-7 -14H-40L508 722Z" />
<glyph unicode="0" glyph-name="zero" horiz-adv-x="565" d="M432 529T472 483T513 352Q513 263 470 178T353 40T195 -14Q118 -14 75 32T31 164Q31 253 76 338T197 476T356 529Q432 529 472 483ZM283 511T234 461T154 328T123 155Q123 4 214 4Q270 4 317 57T393
194T421 367Q421 444 399 477T337 511Q283 511 234 461Z" />
<glyph unicode="1" glyph-name="one" horiz-adv-x="342" d="M159 0H72L200 433Q142 400 50 372L53 393Q136 418 186 449T294 526H314L159 0Z" />
<glyph unicode="2" glyph-name="two" horiz-adv-x="503" d="M366 528T402 502T439 429Q439 380 400 330T307 237T178 142Q122 103 103 87Q130 87 206 73Q284 59 315 59Q384 59 384 107Q384 144 340 164L353 177Q408 151 408 98Q408 55 377 25T283 -6Q262 -6 242
-3T193 8Q162 16 138 20T86 24Q57 24 34 19T-21 0L-16 21Q-5 30 16 44T49 68Q135 129 195 178T302 291T348 418Q348 459 328 482T271 506Q235 506 195 482T127 421T100 345Q100 320 113 309T158 297Q184 297 204 306T250 338L262 324Q236 299 207 288T151 276Q120
276 98 291T76 344Q76 388 107 431T191 501T304 528Q366 528 402 502Z" />
<glyph unicode="3" glyph-name="three" horiz-adv-x="485" d="M365 531T401 505T438 432Q438 389 407 352T327 289T231 250Q301 248 346 219T391 136Q391 50 316 -15T130 -114T-80 -151L-75 -133Q11 -128 97 -95T240 0T298 143Q298 183 276 207T213 234Q197 227
182 222T155 217Q133 217 138 232Q142 251 186 251L205 250Q267 274 309 319T352 419Q352 461 330 485T270 509Q236 509 198 490T135 440T109 378Q109 353 122 342T167 330Q200 330 229 345L240 330Q201 309 160 309Q129 309 107 324T85 377Q85 413 115 449T195
508T303 531Q365 531 401 505Z" />
<glyph unicode="4" glyph-name="four" horiz-adv-x="515" d="M418 34H285L238 -141H151L198 34H-51L-45 55L391 529H417L300 91H434L418 34ZM213 91L295 398L14 91H213Z" />
<glyph unicode="5" glyph-name="five" horiz-adv-x="459" d="M439 531Q388 421 302 421Q280 421 246 440Q243 442 231 447T208 455T191 456L79 227Q111 244 144 252T219 261Q296 261 334 230T372 147Q372 55 299 -10T120 -110T-81 -148L-76 -130Q5 -129 87 -97T223
-2T277 145Q277 185 251 208T172 231Q120 231 61 204L51 209L201 518Q231 519 266 507Q306 493 344 493Q401 493 427 538L439 531Z" />
<glyph unicode="6" glyph-name="six" horiz-adv-x="527" d="M530 702Q434 679 341 597T187 394T127 137Q127 64 145 35T199 6Q252 6 293 55T356 175T379 308Q379 409 314 409Q281 409 250 381T196 287L180 293Q205 371 250 404T347 438Q404 438 438 399T473 288Q473
211 433 141T326 29T183 -14Q108 -14 72 31T36 165Q36 307 116 428T312 626T524 722L530 702Z" />
<glyph unicode="7" glyph-name="seven" horiz-adv-x="487" d="M541 514Q518 482 447 401Q381 325 337 268T252 137T190 -18Q186 -32 178 -71L173 -97Q167 -119 151 -133T111 -148Q80 -148 80 -114Q80 -108 82 -92Q93 -28 140 49T246 198T389 364Q452 434 479 468Q416
426 333 426Q305 426 283 430T233 442Q188 455 159 455Q120 455 97 438T73 388Q73 346 107 318T212 273L206 258Q49 288 49 399Q49 429 64 457T111 502T190 520Q220 520 244 514T308 495Q343 482 367 476T421 470Q452 470 474 479T515 514H541Z" />
<glyph unicode="8" glyph-name="eight" horiz-adv-x="544" d="M537 502T339 396Q379 358 402 332T441 270T458 193Q458 131 422 84T324 12T187 -14Q106 -14 58 18T10 115Q10 197 80 262T249 370Q204 414 181 451T157 538Q157 592 191 634T281 699T396 722Q459
722 498 696T537 616Q537 502 339 396ZM382 443T419 500T456 619Q456 704 378 704Q341 704 309 686T259 634T240 560Q240 518 262 483T328 407Q382 443 419 500ZM369 211T355 243T319 299T261 359Q189 319 144 250T98 106Q98 58 120 31T196 4Q241 4 281 24T345
82T369 172Q369 211 355 243Z" />
<glyph unicode="9" glyph-name="nine" horiz-adv-x="513" d="M394 528T430 483T466 349Q466 212 388 95T196 -96T-12 -188L-18 -168Q76 -146 167 -67T316 129T375 377Q375 450 357 479T303 508Q250 508 209 459T146 339T123 206Q123 105 188 105Q221 105 252 133T306
227L322 221Q297 143 252 110T155 76Q98 76 64 115T29 226Q29 303 69 373T176 485T319 528Q394 528 430 483Z" />
<glyph unicode=":" glyph-name="colon" horiz-adv-x="278" d="M116 481T138 504T190 528Q213 528 227 513T241 476Q241 446 218 423T166 400Q144 400 130 414T116 451Q116 481 138 504ZM16 67T38 90T90 114Q113 114 127 99T141 62Q141 32 118 9T66 -14Q44 -14
30 0T16 37Q16 67 38 90Z" />
<glyph unicode=";" glyph-name="semicolon" horiz-adv-x="287" d="M117 481T139 504T191 528Q214 528 228 513T242 476Q242 446 219 423T167 400Q145 400 131 414T117 451Q117 481 139 504ZM149 2T110 -49T2 -134L-3 -120Q44 -91 72 -57T103 11Q74 -14 51 -14Q33
-14 23 -5T13 21Q13 42 26 64T61 100T105 114Q127 114 138 97T149 55Q149 2 110 -49Z" />
<glyph unicode="&lt;" glyph-name="less" horiz-adv-x="602" d="M613 553L126 351L457 177L441 145L51 355L603 582L613 553Z" />
<glyph unicode="=" glyph-name="equal" horiz-adv-x="663" d="M119 440H620L611 410H110L119 440ZM79 300H580L571 270H70L79 300Z" />
<glyph unicode="&gt;" glyph-name="greater" horiz-adv-x="602" d="M52 184L512 376L142 574L158 603L587 372L62 155L52 184Z" />
<glyph unicode="?" glyph-name="question" horiz-adv-x="429" d="M250 605T219 592T179 556Q188 554 196 543T204 516Q204 495 189 481T151 467Q131 467 121 478T111 509Q111 541 138 567T209 607T299 622Q360 622 398 598T437 535Q437 493 399 455T262 361L239
348Q178 315 155 296T131 254Q131 232 148 219T202 205Q232 205 260 217T298 249Q288 250 280 260T272 284Q272 300 285 312T317 325Q332 325 341 317T351 290Q351 260 325 237T260 201T183 188Q131 188 100 208T68 265Q68 307 105 339T224 415Q305 459 334 481T364
531Q364 564 344 584T283 605Q250 605 219 592ZM78 67T100 90T152 114Q175 114 189 99T203 62Q203 32 180 9T128 -14Q106 -14 92 0T78 37Q78 67 100 90Z" />
<glyph unicode="@" glyph-name="at" horiz-adv-x="849" d="M470 56T470 121Q470 142 479 176Q449 114 414 85T331 56Q277 56 253 89T228 177Q228 251 267 329T367 457T488 508Q548 508 554 444L568 494Q625 494 658 508L552 141Q546 120 546 107Q546 93 553 87T575
81Q613 81 670 123T769 244T812 424Q812 555 731 617T521 680Q401 680 294 611T122 425T57 175Q57 28 138 -42T357 -113Q473 -113 563 -59L570 -72Q531 -99 476 -115T356 -131Q210 -131 124 -56T37 173Q37 307 102 428T278 623T520 698Q660 698 746 630T832 423Q832
317 786 233T671 103T542 56Q470 56 470 121ZM402 86T437 137T512 294L546 415Q545 452 532 468T492 485Q445 485 404 440T338 324T313 183Q313 86 365 86Q402 86 437 137Z" />
<glyph unicode="A" glyph-name="A" horiz-adv-x="629" d="M507 51T521 36T553 20L549 0Q509 3 440 3Q359 3 320 0L324 20Q358 22 376 28T403 52T410 104L401 268H155L80 162Q33 96 33 63Q33 22 107 20L102 0Q47 3 -12 3Q-55 3 -87 0L-82 20Q-36 30 18 107L449
713H464L504 84Q507 51 521 36ZM400 288L383 591L169 288H400Z" />
<glyph unicode="B" glyph-name="B" horiz-adv-x="632" d="M482 360T520 317T559 211Q559 143 516 96T405 24T261 0L188 1Q128 3 89 3Q9 3 -33 0L-29 20Q7 22 25 28T53 51T74 106L206 602Q214 632 214 650Q214 669 200 678T147 688L152 708Q192 705 271 705Q316
705 339 706L412 707Q505 707 552 673T600 579Q600 507 541 454T395 374Q482 360 520 317ZM238 376H304Q363 376 407 403T476 475T501 572Q501 631 475 659T393 688Q349 688 331 674T302 617L238 376ZM345 23T402 74T459 226Q459 359 316 359H234L167 106Q158 70
158 57Q158 39 171 31T218 23Q345 23 402 74Z" />
<glyph unicode="C" glyph-name="C" horiz-adv-x="670" d="M679 622T648 478H626Q632 517 632 547Q632 595 616 626Q598 663 563 683T485 704Q402 704 325 626T199 430T151 200Q151 104 189 54T294 4Q338 4 387 24T472 82Q498 108 517 142T562 240H584Q537 67 525
0H503Q506 21 506 34Q506 60 494 60Q487 60 473 51Q421 17 382 2T284 -14Q173 -14 112 46T51 221Q51 336 108 453T266 646T487 722Q545 722 575 706T636 657Q643 648 651 648Q660 648 669 662T691 708H712Q679 622 648 478Z" />
<glyph unicode="D" glyph-name="D" horiz-adv-x="725" d="M704 362T642 250T472 69T230 0L172 1Q116 3 90 3Q9 3 -30 0L-27 20Q7 22 24 28T52 51T73 106L204 602Q213 640 213 651Q213 671 199 679T146 688L149 708Q183 705 246 705L331 706Q399 708 422 708Q563
708 633 652T704 487Q704 362 642 250ZM342 18T430 85T563 266T608 512Q608 603 557 646T394 690Q363 690 346 683T317 658T297 604L166 104Q157 68 157 55Q157 36 170 27T218 18Q342 18 430 85Z" />
<glyph unicode="E" glyph-name="E" horiz-adv-x="610" d="M583 705T642 708Q616 636 604 590Q593 554 590 528H567Q576 586 576 608Q576 651 554 668T475 685H402Q366 685 349 680T320 657T299 602L236 366H302Q337 366 360 382T396 421T422 477Q425 487 430 498H453Q432
432 418 379L412 356Q398 303 380 214H357L360 234Q361 241 363 256T365 282Q365 312 350 329T296 346H230L166 106Q157 75 157 57Q157 36 172 30T225 23H298Q360 23 397 39T458 92T509 200H532Q521 171 510 128Q494 72 483 0Q415 3 254 3Q62 3 -35 0L-30 20Q6
22 23 28T52 51T73 106L206 602Q215 634 215 651Q215 672 201 679T148 688L153 708Q251 705 443 705Q583 705 642 708Z" />
<glyph unicode="F" glyph-name="F" horiz-adv-x="566" d="M583 705T642 708Q617 637 601 580Q591 543 582 498H559Q570 562 570 598Q570 646 545 665T455 685H402Q366 685 349 680T320 657T299 602L233 356H306Q357 356 382 386T418 448T434 488H457Q436 422 422
369L416 346Q400 280 384 204H361L364 226Q369 253 369 273Q369 303 354 319T301 336H228L166 106Q158 76 158 62Q158 38 176 30T244 20L239 0Q187 3 92 3Q7 3 -35 0L-30 20Q6 22 23 28T52 51T73 106L206 602Q215 634 215 651Q215 672 201 679T148 688L153 708Q251
705 443 705Q583 705 642 708Z" />
<glyph unicode="G" glyph-name="G" horiz-adv-x="705" d="M349 6T378 15T430 37Q450 49 460 64T476 100L499 188Q508 221 508 240Q508 265 490 273T424 284L429 304Q482 301 569 301Q638 301 674 304L669 284Q645 282 634 276T614 254T595 198L542 0H522Q525 12
525 26Q525 57 510 57Q504 57 497 54T472 40Q430 14 389 0T302 -14Q180 -14 115 45T50 215Q50 331 106 449T263 644T488 722Q548 722 583 706T652 657Q661 648 669 648Q679 648 688 662T709 708H731Q698 622 667 478H645Q650 521 650 553Q650 599 636 626Q615 663
574 683T482 704Q379 704 302 617T184 407T143 182Q143 92 185 49T316 6Q349 6 378 15Z" />
<glyph unicode="H" glyph-name="H" horiz-adv-x="755" d="M777 705T820 708L815 688Q778 686 761 680T733 657T712 602L580 106Q571 68 571 57Q571 36 585 29T639 20L635 0Q593 3 507 3Q427 3 380 0L384 20Q420 22 438 28T466 51T487 106L551 346H230L166 106Q157
68 157 57Q157 36 171 29T225 20L221 0Q175 3 94 3Q10 3 -33 0L-28 20Q7 22 24 28T52 51T73 106L205 602Q213 636 213 650Q213 672 199 679T146 688L151 708Q192 705 278 705Q358 705 406 708L401 688Q364 686 347 680T319 657T298 602L235 366H556L619 602Q628
634 628 650Q628 672 613 679T560 688L565 708Q610 705 691 705Q777 705 820 708Z" />
<glyph unicode="I" glyph-name="I" horiz-adv-x="341" d="M157 68T157 57Q157 36 171 29T225 20L221 0Q175 3 94 3Q10 3 -33 0L-28 20Q7 22 24 28T52 51T73 106L205 602Q213 636 213 650Q213 672 199 679T146 688L151 708Q192 705 278 705Q358 705 406 708L401
688Q364 686 347 680T319 657T298 602L166 106Q157 68 157 57Z" />
<glyph unicode="J" glyph-name="J" horiz-adv-x="636" d="M743 724T743 718Q743 694 670 666Q530 573 462 366H561L558 346H456Q448 320 445 307L383 65Q354 -47 295 -117T147 -188Q100 -188 73 -174T45 -131Q45 -109 61 -92T100 -74Q118 -74 130 -86T142 -116Q142
-132 131 -145T102 -167Q117 -172 137 -172Q182 -172 211 -138T258 -53T298 88Q302 107 312 145L342 262Q355 310 370 346H237L240 366H378Q420 457 485 523T653 663Q537 603 455 603Q423 603 397 610T333 631Q294 645 268 652T209 659Q177 659 161 643T144 598Q144
534 218 520L215 500Q168 508 137 537T105 623Q105 674 136 706T221 739Q258 739 287 725T354 685Q392 658 420 645T484 632Q530 632 566 642T661 677Q699 735 724 735Q732 735 737 730Q743 724 743 718Z" />
<glyph unicode="K" glyph-name="K" horiz-adv-x="675" d="M678 722T692 707T707 668Q707 646 693 623T649 599Q629 599 620 610T610 639Q610 653 619 670T642 701H639Q619 700 603 687Q586 672 575 647T545 571Q524 512 505 474T453 406T370 369Q407 361 429 348T463
301T473 205L469 92Q468 66 473 54T499 41Q524 41 541 59T573 119L590 170H610L584 93Q565 38 535 12T462 -14Q370 -14 378 102L385 215Q386 228 386 251Q386 297 377 320T349 358Q312 349 292 349Q261 349 261 369Q261 389 291 389Q313 389 352 379Q403 385 435
413T485 479T524 575Q542 627 555 654T588 699Q617 722 648 722Q678 722 692 707ZM157 68T157 57Q157 36 171 29T225 20L221 0Q175 3 94 3Q10 3 -33 0L-28 20Q7 22 24 28T52 51T73 106L205 602Q213 636 213 650Q213 672 199 679T146 688L151 708Q192 705 278 705Q358
705 406 708L401 688Q364 686 347 680T319 657T298 602L166 106Q157 68 157 57Z" />
<glyph unicode="L" glyph-name="L" horiz-adv-x="586" d="M528 191T510 128Q494 72 483 0Q415 3 254 3Q62 3 -35 0L-30 20Q6 22 23 28T52 51T73 106L206 602Q215 634 215 651Q215 672 201 679T148 688L153 708Q195 705 281 705Q362 705 408 708L403 688Q366 686
349 680T320 657T299 602L166 106Q157 75 157 57Q157 36 172 30T225 23H298Q360 23 397 40T460 97T512 210H535Q528 191 510 128Z" />
<glyph unicode="M" glyph-name="M" horiz-adv-x="868" d="M808 705Q885 705 933 708L928 688Q891 686 874 680T846 657T825 602L693 106Q685 72 685 58Q685 36 699 29T752 20L748 0Q702 3 624 3Q536 3 494 0L498 20Q535 22 552 28T580 51T601 106L746 645L331
-5H309L241 653L99 116Q91 82 91 66Q91 41 107 32T166 20L161 0Q127 3 60 3Q1 3 -34 0L-29 20Q6 22 25 30T55 58T76 116L206 602Q214 636 214 650Q214 672 200 679T147 688L152 708Q184 705 241 705Q294 705 329 708L384 115L760 705H808Z" />
<glyph unicode="N" glyph-name="N" horiz-adv-x="770" d="M844 754T858 740T872 703Q872 676 856 654T813 631Q793 631 784 642T775 670Q775 686 784 703T807 733H804Q755 732 722 682Q678 616 630 450T521 -5H499L271 639Q222 388 179 215T95 -11Q73 -40 49 -57T-12
-74Q-72 -74 -72 -22Q-72 5 -56 27T-13 49Q7 49 16 38T25 10Q25 -6 16 -23T-7 -53H-4Q47 -52 79 -1Q116 58 156 210T243 602Q249 631 249 647Q249 671 233 678T172 688L177 708Q209 705 266 705Q312 705 347 708L536 155Q579 347 620 487T704 690Q748 754 812 754Q844
754 858 740Z" />
<glyph unicode="O" glyph-name="O" horiz-adv-x="729" d="M54 339T107 455T255 646T471 722Q583 722 645 659T707 481Q707 368 654 253T504 62T289 -14Q178 -14 116 49T54 226Q54 339 107 455ZM387 704T317 632T203 446T160 213Q160 116 198 60T298 4Q373 4 443
76T557 262T600 495Q600 592 562 648T462 704Q387 704 317 632Z" />
<glyph unicode="P" glyph-name="P" horiz-adv-x="589" d="M519 707T569 667T620 556Q620 478 573 416T439 319T243 284H213L166 106Q164 99 160 83T156 56Q156 37 171 29T225 20L221 0Q175 3 97 3Q9 3 -33 0L-29 20Q7 22 25 28T53 51T74 106L206 602Q215 638 215
650Q215 670 200 678T147 688L152 708Q192 705 275 705Q323 705 347 706L421 707Q519 707 569 667ZM393 304T456 377T519 572Q519 631 489 659T392 688Q362 688 345 681T318 655T298 602L219 304H253Q393 304 456 377Z" />
<glyph unicode="Q" glyph-name="Q" horiz-adv-x="781" d="M669 50T683 35T697 -7Q697 -51 658 -93T560 -161T441 -188Q371 -188 317 -153T201 -52Q117 -82 59 -82Q10 -82 -17 -63T-45 -8Q-45 31 -11 56T77 81Q128 81 167 60T264 -8Q363 43 451 127T593 311T648
509Q648 598 604 651T477 704Q403 704 345 661T255 550T223 409Q223 337 254 302T337 266Q381 266 417 290T473 351T494 424Q494 451 487 464Q477 443 456 431T413 419Q391 419 379 432T366 466Q366 492 385 509T435 527Q471 527 492 500T514 429Q514 380 487 337T410
269T299 243Q215 243 168 291T121 418Q121 503 174 573T314 682T494 722Q614 722 683 667T752 515Q752 414 683 311T504 121T279 -20Q341 -68 395 -94T524 -120Q574 -120 609 -105T668 -52Q653 -58 637 -58Q614 -58 601 -45T588 -10Q588 14 605 32T647 50Q669 50
683 35ZM120 -65T190 -40Q141 12 111 35T47 59Q18 59 -4 41T-26 -6Q-26 -65 70 -65Q120 -65 190 -40Z" />
<glyph unicode="R" glyph-name="R" horiz-adv-x="664" d="M592 121H615L611 108Q593 45 566 16T492 -14Q445 -14 422 14T402 82L410 194Q411 206 411 226Q411 268 396 291T342 324T227 336L166 106Q157 76 157 57Q157 37 171 29T225 20L221 0Q175 3 97 3Q9 3 -33
0L-29 20Q7 22 25 28T53 51T74 106L206 602Q215 636 215 649Q215 670 200 678T147 688L152 708Q192 705 275 705Q323 705 347 706L421 707Q519 707 569 670T620 566Q620 484 549 424T359 344Q372 343 394 339Q453 328 479 304T505 227Q505 214 504 207L496 105Q495
98 495 84Q495 23 527 23Q544 23 558 43T587 107L592 121ZM233 356H263Q398 356 458 415T519 572Q519 631 489 659T392 688Q362 688 345 681T318 655T298 602L233 356Z" />
<glyph unicode="S" glyph-name="S" horiz-adv-x="554" d="M540 624T517 511H497Q503 540 503 568Q503 627 468 665T361 703Q298 703 260 671T221 576Q221 527 251 486T343 389Q386 350 412 321T456 257T474 182Q474 117 437 73T341 7T221 -14Q168 -14 137 -1T79
32Q60 47 43 47Q31 47 23 35T2 -7H-18Q-2 31 13 84T50 233H70Q61 186 61 159Q61 86 101 46T224 6Q292 6 331 37T371 131Q371 169 356 201T320 257T260 319Q220 357 197 384T157 447T140 527Q140 589 171 633T253 699T360 722Q401 722 431 712T490 680Q514 662 523
662Q531 662 538 674T556 715H576Q540 624 517 511Z" />
<glyph unicode="T" glyph-name="T" horiz-adv-x="659" d="M790 817T801 804T813 769Q813 747 800 729T766 697Q713 664 608 664Q564 664 506 671L358 116Q349 85 349 65Q349 40 367 31T433 20L429 0Q377 3 280 3Q182 3 134 0L138 20Q180 22 203 30T240 58T265
116L416 683Q335 694 287 694Q200 694 175 677Q183 666 188 650T193 619Q193 596 180 579T143 561Q122 561 111 574T99 611Q99 663 152 689Q199 712 286 712Q326 712 362 709T453 698Q505 691 540 688T615 684Q660 684 690 689T744 706Q719 731 719 762Q719 784
731 800T768 817Q790 817 801 804Z" />
<glyph unicode="U" glyph-name="U" horiz-adv-x="682" d="M638 617T638 636Q638 664 621 675T564 688L569 708Q604 705 670 705Q729 705 764 708L759 688Q724 686 705 678T674 650T653 592L575 291Q539 153 477 79Q440 36 387 11T272 -14Q165 -14 118 40Q100 61
92 85T83 142Q83 196 108 288L191 602Q199 636 199 650Q199 672 185 679T132 688L138 708Q178 705 267 705Q344 705 392 708L386 688Q349 686 332 680T304 657T283 602L195 271Q173 186 173 136Q173 81 200 51T291 21Q396 21 456 89T549 280L631 592Q638 617 638
636Z" />
<glyph unicode="V" glyph-name="V" horiz-adv-x="632" d="M710 705T742 708L737 688Q684 677 636 601L242 -5H227L148 624Q144 657 129 672T96 688L101 708Q140 705 209 705Q286 705 329 708L324 688Q292 686 276 682T251 666T242 629Q242 622 244 604L301 121L578
546Q621 613 621 645Q621 667 603 677T547 688L552 708Q607 705 666 705Q710 705 742 708Z" />
<glyph unicode="W" glyph-name="W" horiz-adv-x="902" d="M962 705T994 708L989 688Q930 675 894 601L595 -5H579L507 451L236 -5H220L141 624Q133 686 86 688L90 708Q130 705 189 705Q261 705 297 708L293 688Q262 686 249 674T235 630Q235 624 237 604L293 127L502
482L480 624Q470 686 435 688L439 708Q475 705 528 705Q614 705 656 708L652 688Q607 686 590 676T573 636Q573 622 576 604L648 149L843 546Q876 614 876 643Q876 668 858 677T799 688L804 708Q860 705 918 705Q962 705 994 708Z" />
<glyph unicode="X" glyph-name="X" horiz-adv-x="699" d="M721 722T735 708T749 671Q749 646 734 623T690 599Q671 599 662 610T652 637Q652 652 661 670T684 701H681Q646 701 617 680Q572 647 517 570T410 382L436 155Q442 102 460 72T515 41Q544 41 562 59T595
119L612 170H632L606 93Q587 38 557 12T484 -14Q419 -14 390 29T353 142L335 299Q296 216 235 138T118 21Q72 -14 26 -14Q-5 -14 -19 0T-33 37Q-33 62 -18 85T26 109Q46 109 55 98T64 71Q64 56 55 38T32 7H36Q70 8 99 28Q151 62 213 140T331 332L305 553Q299 606
281 636T226 667Q197 667 179 649T146 589L129 538H109L135 615Q154 670 184 696T257 722Q322 722 351 679T388 566L406 411Q445 496 498 572T598 687Q644 722 690 722Q721 722 735 708Z" />
<glyph unicode="Y" glyph-name="Y" horiz-adv-x="670" d="M729 722T742 707T756 669Q756 644 741 622T697 599Q677 599 668 610T659 639Q659 655 668 671T691 701H688Q661 700 633 679Q581 641 521 557T404 338L346 106Q338 72 338 58Q338 36 352 29T405 20L400
0Q355 3 276 3Q189 3 145 0L150 20Q186 22 204 28T233 51T253 106L312 339Q296 481 269 574T195 667Q178 667 167 656T147 620L119 538H97L130 635Q146 682 166 702T228 722Q281 722 313 679T364 559T395 360Q432 453 480 528T582 657Q647 722 700 722Q729 722
742 707Z" />
<glyph unicode="Z" glyph-name="Z" horiz-adv-x="652" d="M719 709T719 700Q719 686 701 670T644 638L367 366H519L511 346H347L64 68Q156 122 237 122Q265 122 288 115T343 94Q377 80 399 73T451 66Q484 66 501 83T519 132Q519 191 447 205L451 225Q496 217 526
190T557 109Q557 55 524 21T436 -14Q403 -14 378 -1T320 40Q288 66 263 79T207 93Q169 93 138 83T59 48Q41 22 21 6T-15 -10Q-24 -10 -29 -5Q-35 -1 -35 8Q-35 22 -17 38T40 70L321 346H159L166 366H341L620 640Q528 586 447 586Q419 586 396 593T341 614Q307 628
285 635T233 642Q200 642 183 625T165 576Q165 517 237 503L233 483Q188 491 158 518T127 599Q127 653 160 687T248 722Q281 722 306 709T364 668Q396 642 421 629T477 615Q515 615 546 625T625 660Q643 686 663 702T699 718Q708 718 713 713Q719 709 719 700Z"
/>
<glyph unicode="[" glyph-name="bracketleft" horiz-adv-x="312" d="M358 643H277L107 -35H188L184 -54H14L192 662H362L358 643Z" />
<glyph unicode="\" glyph-name="backslash" horiz-adv-x="492" d="M391 -14H358L132 722H163L391 -14Z" />
<glyph unicode="]" glyph-name="bracketright" horiz-adv-x="312" d="M-41 -35H40L210 643H129L133 662H303L125 -54H-45L-41 -35Z" />
<glyph unicode="^" glyph-name="asciicircum" horiz-adv-x="515" d="M292 603T238 571T130 516L126 530Q198 561 261 612T364 722H382Q390 664 426 613T518 530L506 516Q452 538 404 570T330 636Q292 603 238 571Z" />
<glyph unicode="_" glyph-name="underscore" horiz-adv-x="744" d="M577 -88L566 -128H-34L-24 -88H577Z" />
<glyph unicode="`" glyph-name="grave" horiz-adv-x="320" d="M329 702T272 743Q232 770 212 789Q193 808 193 828Q193 840 200 848Q209 858 223 858Q234 858 246 852T266 837Q282 820 308 779Q357 709 380 679L370 669Q329 702 272 743Z" />
<glyph unicode="a" glyph-name="a" horiz-adv-x="632" d="M509 51T523 36T554 20L549 0Q509 3 440 3Q359 3 320 0L325 20Q372 22 392 35T412 84Q412 97 411 104L396 228H142L74 143Q35 94 35 63Q35 26 95 20V0Q65 3 4 3Q-57 3 -83 0V20Q-39 32 26 113L428 615H443L505
84Q509 51 523 36ZM394 248L363 502L158 248H394Z" />
<glyph unicode="b" glyph-name="b" horiz-adv-x="613" d="M457 312T495 277T534 191Q534 138 497 94T397 25T262 0L189 1Q129 3 90 3Q10 3 -32 0L-28 20Q8 22 26 28T54 51T75 106L181 502Q190 538 190 550Q190 571 175 579T122 588L127 608Q167 605 246 605Q291
605 314 606L387 607Q480 607 527 578T575 499Q575 438 516 393T370 324Q457 312 495 277ZM226 326H279Q338 326 382 349T451 410T476 492Q476 541 450 564T368 588Q324 588 306 574T277 517L226 326ZM342 23T388 70T434 206Q434 309 291 309H222L168 106Q159 68
159 57Q159 38 172 31T219 23Q342 23 388 70Z" />
<glyph unicode="c" glyph-name="c" horiz-adv-x="665" d="M164 -14T103 40T42 196Q42 297 93 396T237 558T452 622Q507 622 540 605T600 557Q608 548 614 548Q634 548 655 608H677Q646 518 612 378H590Q596 429 596 455Q596 477 593 493T580 526Q562 564 526 584T443
604Q364 604 295 538T184 372T142 176Q142 93 179 49T283 4Q329 4 378 24T463 82Q489 109 508 143T553 240H575Q528 67 516 0H494Q497 21 497 34Q497 60 484 60Q476 60 464 51Q418 19 375 3T274 -14Q164 -14 103 40Z" />
<glyph unicode="d" glyph-name="d" horiz-adv-x="724" d="M680 277T625 189T469 51T232 0L174 1Q118 3 92 3Q11 3 -28 0L-25 20Q9 22 26 28T54 51T75 106L180 502Q189 534 189 551Q189 571 175 579T122 588L125 608Q159 605 222 605L307 606Q375 608 398 608Q539
608 609 552T680 387Q680 277 625 189ZM405 18T494 124T584 412Q584 503 533 546T370 590Q339 590 322 583T293 558T273 504L168 104Q159 66 159 54Q159 35 172 27T220 18Q405 18 494 124Z" />
<glyph unicode="e" glyph-name="e" horiz-adv-x="619" d="M558 605T624 608Q605 561 588 500Q573 442 571 428H548Q557 472 557 501Q557 547 533 566T450 585H377Q341 585 323 580T295 557T274 502L224 316H317Q362 316 386 347T430 428H453Q429 357 417 306L411
284Q396 227 390 184H367Q368 190 370 205T372 231Q372 261 357 278T301 296H218L167 106Q158 68 158 58Q158 36 172 30T226 23H299Q354 23 390 40T454 95T507 200H530Q512 147 506 118Q495 81 481 0Q411 3 246 3Q61 3 -34 0L-29 20Q7 22 25 28T53 51T74 106L181
502Q190 540 190 551Q190 572 176 579T123 588L128 608Q222 605 407 605Q558 605 624 608Z" />
<glyph unicode="f" glyph-name="f" horiz-adv-x="578" d="M561 605T627 608Q608 561 591 500Q576 442 574 428H551Q560 470 560 499Q560 546 535 565T450 585H377Q341 585 323 580T295 557T274 502L224 316H327Q372 316 396 347T440 428H463Q439 357 427 306L421
284Q406 227 400 184H377Q381 216 381 231Q381 262 368 279T321 296H218L167 106Q159 77 159 62Q159 38 177 30T245 20L240 0Q189 3 94 3Q10 3 -34 0L-29 20Q7 22 25 28T53 51T74 106L181 502Q190 540 190 551Q190 572 176 579T123 588L128 608Q222 605 407 605Q561
605 627 608Z" />
<glyph unicode="g" glyph-name="g" horiz-adv-x="697" d="M514 0Q517 11 517 22Q517 47 502 47Q486 47 449 24Q416 4 380 -5T294 -14Q171 -14 107 40T42 195Q42 293 92 392T235 557T452 622Q512 622 547 606T616 557Q625 548 633 548Q643 548 652 562T673 608H695Q663
516 631 378H609Q614 421 614 453Q614 499 600 526Q579 563 538 583T446 604Q344 604 274 529T169 349T135 162Q135 83 177 45T308 6Q358 6 406 25T466 86L484 153Q493 186 493 205Q493 230 475 238T409 249L413 269Q466 266 554 266Q622 266 658 269L654 249Q629
247 617 241T597 219T578 163L534 0H514Z" />
<glyph unicode="h" glyph-name="h" horiz-adv-x="758" d="M751 605T795 608L790 588Q753 586 736 580T708 557T687 502L582 106Q573 68 573 57Q573 36 587 29T641 20L637 0Q595 3 509 3Q429 3 382 0L386 20Q422 22 440 28T468 51T489 106L539 296H218L168 106Q159
68 159 57Q159 36 173 29T227 20L223 0Q177 3 96 3Q13 3 -31 0L-26 20Q9 22 26 28T54 51T75 106L180 502Q188 536 188 550Q188 572 174 579T121 588L126 608Q167 605 253 605Q333 605 381 608L376 588Q339 586 322 580T294 557T273 502L224 316H545L594 502Q603
534 603 550Q603 572 588 579T535 588L540 608Q585 605 666 605Q751 605 795 608Z" />
<glyph unicode="i" glyph-name="i" horiz-adv-x="344" d="M159 68T159 57Q159 36 173 29T227 20L223 0Q177 3 96 3Q13 3 -31 0L-26 20Q9 22 26 28T54 51T75 106L180 502Q188 536 188 550Q188 572 174 579T121 588L126 608Q167 605 253 605Q333 605 381 608L376
588Q339 586 322 580T294 557T273 502L168 106Q159 68 159 57Z" />
<glyph unicode="j" glyph-name="j" horiz-adv-x="615" d="M679 616T679 608Q679 584 606 556Q544 505 508 438T437 256H537L534 236H431L429 230L359 -5Q335 -85 274 -136T123 -188Q77 -188 49 -174T21 -131Q21 -109 37 -92T76 -74Q94 -74 106 -86T118 -116Q118
-132 107 -145T78 -167Q93 -172 113 -172Q162 -172 191 -148T237 -83T280 44L289 75L322 185Q328 207 339 236H213L216 256H347Q374 324 409 373T481 458T589 553Q542 525 501 509T421 493Q390 493 364 500T304 521Q268 535 242 542T185 549Q153 549 137 533T120
488Q120 424 194 410L191 390Q144 398 113 427T81 513Q81 564 112 596T197 629Q232 629 260 616T325 575Q361 549 388 536T450 522Q488 522 519 532T597 567Q635 625 660 625Q668 625 673 620Q679 616 679 608Z" />
<glyph unicode="k" glyph-name="k" horiz-adv-x="674" d="M635 622T649 607T664 568Q664 546 650 523T606 499Q586 499 577 510T567 539Q567 553 576 570T599 601H596Q584 601 577 598T560 587Q545 573 535 551T510 487Q491 436 476 404T433 347T363 316Q420 304
447 270T470 166L468 80Q467 62 477 52T501 41Q526 41 543 59T575 119L592 170H612L586 93Q567 38 537 12T464 -14Q422 -14 401 10T379 81Q379 95 380 102L386 176Q387 185 387 201Q387 241 376 269T344 308Q300 297 280 297Q248 297 248 316Q248 335 279 335Q302
335 342 325Q386 329 413 352T456 407T488 489Q502 531 514 557T545 599Q574 622 605 622Q635 622 649 607ZM159 68T159 57Q159 36 173 29T227 20L223 0Q177 3 96 3Q13 3 -31 0L-26 20Q9 22 26 28T54 51T75 106L180 502Q188 536 188 550Q188 572 174 579T121 588L126
608Q167 605 253 605Q333 605 381 608L376 588Q339 586 322 580T294 557T273 502L168 106Q159 68 159 57Z" />
<glyph unicode="l" glyph-name="l" horiz-adv-x="594" d="M535 203T525 175T509 118Q498 81 484 0Q414 3 246 3Q61 3 -34 0L-29 20Q7 22 25 28T53 51T74 106L181 502Q190 540 190 551Q190 572 176 579T123 588L128 608Q169 605 255 605Q335 605 383 608L378 588Q341
586 323 580T295 557T274 502L167 106Q158 68 158 58Q158 36 172 30T226 23H289Q365 23 421 66T514 210H537Q535 203 525 175Z" />
<glyph unicode="m" glyph-name="m" horiz-adv-x="866" d="M861 619T909 622L904 602Q867 600 850 594T822 571T801 516L692 106Q684 72 684 58Q684 36 698 29T751 20L747 0Q701 3 623 3Q535 3 493 0L497 20Q534 22 551 28T579 51T600 106L721 557L330 -5H308L217
566L98 116Q89 78 89 65Q89 41 105 32T164 20L159 0Q123 3 58 3Q-3 3 -36 0L-31 20Q4 22 23 30T54 58T76 116L182 516Q190 550 190 564Q190 586 176 593T123 602L128 622Q159 619 217 619Q266 619 301 622L380 106L736 619H784Q861 619 909 622Z" />
<glyph unicode="n" glyph-name="n" horiz-adv-x="797" d="M843 654T857 640T871 603Q871 576 855 554T812 531Q792 531 783 542T774 570Q774 586 783 603T806 633H803Q777 632 758 619T721 582Q677 519 628 376T520 -5H498L270 543Q163 75 94 -11Q70 -41 47 -57T-13
-74Q-73 -74 -73 -22Q-73 5 -57 27T-14 49Q6 49 15 38T24 10Q24 -6 15 -23T-8 -53H-6Q42 -52 78 -1Q150 106 248 540Q250 568 235 577T171 588L176 608Q208 605 265 605Q311 605 346 608L536 137Q632 497 703 590Q751 654 811 654Q843 654 857 640Z" />
<glyph unicode="o" glyph-name="o" horiz-adv-x="732" d="M180 -14T113 47T46 227Q46 318 97 410T239 562T444 622Q556 622 623 561T690 381Q690 290 639 198T497 46T292 -14Q180 -14 113 47ZM356 604T291 547T190 400T153 213Q153 105 192 55T301 4Q380 4 445
61T546 208T583 395Q583 503 544 553T435 604Q356 604 291 547Z" />
<glyph unicode="p" glyph-name="p" horiz-adv-x="582" d="M493 607T543 572T594 476Q594 410 548 357T418 274T227 244H204L167 106Q159 74 159 58Q159 39 173 31T226 20L222 0Q176 3 98 3Q10 3 -32 0L-28 20Q8 22 26 28T54 51T75 106L180 502Q187 534 187 546Q187
567 173 576T121 588L126 608Q167 605 249 605Q297 605 321 606L395 607Q493 607 543 572ZM372 264T432 326T493 492Q493 541 463 564T366 588Q336 588 319 581T292 555T272 502L209 264H237Q372 264 432 326Z" />
<glyph unicode="q" glyph-name="q" horiz-adv-x="777" d="M665 30T678 15T692 -26Q692 -73 654 -110T559 -167T445 -188Q368 -188 310 -154T193 -59Q113 -82 56 -82Q6 -82 -22 -63T-50 -11Q-50 29 -18 50T68 71Q120 71 162 49T262 -17Q357 24 439 92T572 244T623
417Q623 503 579 553T453 604Q384 604 326 570T233 478T198 348Q198 282 230 249T315 216Q351 216 386 233T445 281T468 345Q468 371 460 385Q450 364 430 352T388 339Q366 339 354 352T341 386Q341 412 360 429T408 447Q445 447 467 422T489 354Q489 305 460 269T382
213T281 193Q190 193 143 232T96 338Q96 424 152 488T295 587T464 622Q540 622 599 598T693 526T727 414Q727 325 662 239T494 84T279 -29Q336 -73 386 -96T502 -120Q560 -120 598 -109T668 -69Q650 -78 632 -78Q609 -78 596 -64T583 -29Q583 -6 600 12T642 30Q665
30 678 15ZM112 -65T180 -46Q175 -41 145 -11T88 34T39 49Q10 49 -11 34T-32 -8Q-32 -37 -6 -51T55 -65Q112 -65 180 -46Z" />
<glyph unicode="r" glyph-name="r" horiz-adv-x="647" d="M567 121H590L586 108Q568 46 539 16T463 -14Q417 -14 397 13T378 82L382 145Q383 154 383 172Q383 212 371 235T326 271T234 286H228H215L167 106Q159 74 159 58Q159 39 173 31T226 20L222 0Q176 3 98
3Q10 3 -32 0L-28 20Q8 22 26 28T54 51T75 106L181 502Q188 534 188 546Q188 567 174 576T122 588L127 608Q167 605 250 605Q298 605 322 606L396 607Q494 607 544 575T595 486Q595 411 527 361T341 293L362 290Q425 278 451 250T474 158L471 105Q470 96 470 81Q470
53 477 38T501 23Q519 23 533 43T562 107L567 121ZM221 306H238Q334 306 389 325T469 384T494 492Q494 541 464 564T367 588Q337 588 320 581T293 555T273 502L221 306Z" />
<glyph unicode="s" glyph-name="s" horiz-adv-x="563" d="M520 524T497 411H477Q483 440 483 467Q483 527 448 565T339 603Q278 603 240 576T201 497Q201 449 233 416T331 339Q381 306 409 284T456 231T475 160Q475 103 438 64T342 5T223 -14Q169 -14 138 -2T80
32Q61 47 45 47Q32 47 24 36T3 -7H-17Q-1 31 14 84T51 233H71Q62 186 62 159Q62 86 102 46T227 6Q295 6 333 32T372 113Q372 163 343 196T256 269Q207 302 182 323T138 375T120 447Q120 502 151 541T234 601T343 622Q384 622 412 612T470 580Q480 572 489 567T503
562Q511 562 518 574T536 615H556Q520 524 497 411Z" />
<glyph unicode="t" glyph-name="t" horiz-adv-x="611" d="M708 717T719 704T731 670Q731 630 685 596Q656 579 624 572T547 564Q509 564 462 569L331 116Q322 86 322 66Q322 41 341 31T406 20L402 0Q350 3 253 3Q155 3 107 0L111 20Q154 22 177 30T213 57T238
116L373 582Q285 594 247 594Q183 594 153 577Q161 566 166 550T171 519Q171 496 158 479T121 461Q100 461 89 474T77 511Q77 562 129 589Q172 612 242 612Q299 612 401 598Q438 593 477 589T551 584Q588 584 613 589T662 606Q637 631 637 662Q637 684 649 700T686
717Q708 717 719 704Z" />
<glyph unicode="u" glyph-name="u" horiz-adv-x="683" d="M538 153T476 79Q439 36 386 11T271 -14Q159 -14 117 40Q99 63 90 87T81 142Q81 192 107 288L164 502Q172 536 172 550Q172 572 158 579T105 588L111 608Q151 605 240 605Q317 605 365 608L359 588Q322
586 305 580T277 557T256 502L194 271Q172 186 172 136Q172 81 199 51T290 21Q395 21 455 89T548 280L605 492Q612 517 612 537Q612 564 595 575T538 588L543 608Q579 605 644 605Q705 605 738 608L733 588Q688 586 665 566T627 492L574 291Q538 153 476 79Z" />
<glyph unicode="v" glyph-name="v" horiz-adv-x="636" d="M699 605T726 608L721 588Q691 576 669 556T610 490L215 -5H200L134 524Q130 557 115 572T82 588L87 608Q126 605 195 605Q272 605 315 608L310 588Q264 586 246 575T228 529Q228 522 230 504L278 108L550
448Q606 517 606 551Q606 569 591 577T543 588L548 608Q577 605 658 605Q699 605 726 608Z" />
<glyph unicode="w" glyph-name="w" horiz-adv-x="906" d="M958 605T982 608L977 588Q946 579 922 558T870 489L568 -5H552L478 448L209 -5H193L127 524Q119 586 72 588L76 608Q117 605 175 605Q247 605 283 608L279 588Q248 586 235 574T221 530Q221 524 223 504L266
128L473 478L466 524Q456 586 421 588L425 608Q461 605 514 605Q600 605 642 608L638 588Q594 586 577 576T559 536Q559 524 562 504L626 128L814 437Q859 510 859 547Q859 568 844 577T799 588L804 608Q834 605 895 605Q958 605 982 608Z" />
<glyph unicode="x" glyph-name="x" horiz-adv-x="676" d="M672 622T686 608T700 571Q700 546 685 523T641 499Q622 499 613 510T603 537Q603 552 612 570T635 601H632Q598 600 568 580Q529 552 480 488T385 331L405 155Q411 102 429 72T484 41Q513 41 531 59T564
119L581 170H601L575 93Q556 38 526 12T453 -14Q387 -14 358 30T322 142L310 250Q269 180 217 118T119 21Q71 -14 27 -14Q-4 -14 -18 0T-32 37Q-32 62 -17 85T27 109Q47 109 56 98T65 71Q65 56 56 38T33 7H36Q72 9 100 28Q145 57 200 123T306 283L287 453Q281 506
263 536T208 567Q179 567 161 549T128 489L111 438H91L117 515Q136 570 166 596T239 622Q305 622 334 578T370 466L382 361Q420 433 464 494T549 587Q593 622 641 622Q672 622 686 608Z" />
<glyph unicode="y" glyph-name="y" horiz-adv-x="638" d="M672 622T685 607T699 569Q699 544 684 522T640 499Q620 499 611 510T602 539Q602 554 611 571T634 601H631Q606 600 576 579Q526 541 469 466T360 273L317 106Q308 68 308 57Q308 36 322 29T376 20L371
0Q326 3 247 3Q160 3 116 0L121 20Q157 22 175 28T204 51T224 106L272 290Q259 410 237 488T178 567Q161 567 150 556T130 520L102 438H80L113 535Q129 582 149 602T211 622Q252 622 277 593T317 510T347 360L355 311Q425 462 525 561Q551 587 582 604T643 622Q672
622 685 607Z" />
<glyph unicode="z" glyph-name="z" horiz-adv-x="654" d="M700 609T700 600Q700 586 682 570T625 538L357 316H473L465 296H333L58 68Q150 122 231 122Q259 122 282 115T337 94Q371 80 393 73T445 66Q478 66 495 83T513 132Q513 191 441 205L445 225Q490 217 520
190T551 109Q551 55 518 21T430 -14Q397 -14 372 -1T314 40Q282 66 257 79T201 93Q163 93 132 83T53 48Q35 22 15 6T-21 -10Q-30 -10 -35 -5Q-41 -1 -41 8Q-41 22 -23 38T34 70L307 296H193L200 316H331L601 540Q509 486 428 486Q400 486 377 493T322 514Q288 528
266 535T214 542Q181 542 164 525T146 476Q146 417 218 403L214 383Q169 391 139 418T108 499Q108 553 141 587T229 622Q262 622 287 609T345 568Q377 542 402 529T458 515Q496 515 527 525T606 560Q624 586 644 602T680 618Q689 618 694 613Q700 609 700 600Z"
/>
<glyph unicode="{" glyph-name="braceleft" horiz-adv-x="304" d="M335 643Q311 642 299 633T276 593T243 487Q217 393 171 350T67 305Q109 291 133 264T157 181Q157 162 153 144T141 97Q133 67 129 49T125 11Q125 -18 138 -28T182 -39L177 -58Q111 -58 78 -36T45
26Q45 55 64 121Q66 127 74 160T83 217Q82 293 42 296H37L40 314H45Q78 314 94 325T120 362T151 457L160 487Q181 557 202 594T256 646T340 662L335 643Z" />
<glyph unicode="|" glyph-name="bar" horiz-adv-x="318" d="M189 -195H149V858H189V-195Z" />
<glyph unicode="}" glyph-name="braceright" horiz-adv-x="303" d="M197 662T230 640T263 578Q263 550 244 483Q242 477 234 444T225 387Q226 352 236 334T266 314H271L268 296H263Q230 296 214 285T188 248T157 150L148 117Q128 47 106 10T52 -42T-32 -58L-27
-39Q-3 -38 9 -29T32 11T65 117Q90 215 136 259T241 305Q200 317 176 344T151 423Q151 442 155 460T167 507Q175 537 179 555T183 593Q183 622 170 632T126 643L131 662Q197 662 230 640Z" />
<glyph unicode="~" glyph-name="asciitilde" horiz-adv-x="653" d="M387 237T361 247T298 277Q263 296 240 305T185 315Q120 315 84 257L70 262Q93 312 136 340T235 369Q270 369 296 359T359 329Q394 310 417 301T472 291Q537 291 573 349L587 344Q564 294 521
266T422 237Q387 237 361 247Z" />
<glyph unicode="&#xa0;" glyph-name="uni00A0" horiz-adv-x="253" />
<glyph unicode="&#xa1;" glyph-name="exclamdown" horiz-adv-x="287" d="M152 575T174 598T226 622Q249 622 263 607T277 570Q277 540 254 517T202 494Q180 494 166 508T152 545Q152 575 174 598ZM161 319T140 160Q127 60 119 25Q115 6 103 -4T74 -14Q53 -14 41
-2T29 29Q29 38 32 48Q40 76 76 166Q138 321 164 410L182 407Q161 319 140 160Z" />
<glyph unicode="&#xa2;" glyph-name="cent" horiz-adv-x="546" d="M553 558Q535 509 498 378H475Q477 414 477 422Q477 447 473 462T459 496Q446 518 423 530T370 544L233 64Q265 64 298 76T359 112Q385 134 402 161T442 240H465Q423 90 415 50H392Q393 56 393
66Q393 91 377 91Q369 91 357 85Q323 68 294 58T228 46L185 -102H165L207 46Q124 48 75 91T26 213Q26 296 71 376T192 508T356 562L398 710H418L375 562Q410 560 432 550T476 524Q483 518 492 518Q513 518 530 558H553ZM123 139T147 106T213 65L350 543Q284 537
233 480T152 343T123 196Q123 139 147 106Z" />
<glyph unicode="&#xa3;" glyph-name="sterling" horiz-adv-x="559" d="M423 546T436 562T471 584Q471 594 454 601T415 608Q362 608 338 572T295 465L282 417H418L412 397H277L256 317H391L385 297H250Q230 235 195 188T95 76Q154 108 201 108Q220 108 237 103T278
86Q306 74 324 69T364 63Q391 63 410 78T430 117Q430 173 375 186L381 203Q420 196 446 170T472 101Q472 73 455 47T410 3T349 -14Q322 -14 302 -3T252 33Q224 56 203 68T153 80Q120 80 86 60Q61 25 36 6T-10 -14Q-17 -14 -20 -12T-23 -4Q-23 12 4 34T76 69Q97
109 113 151T147 258L157 297H60L66 317H163L184 397H87L93 417H189L195 439Q222 523 276 573T417 623Q468 623 494 604T521 555Q521 530 503 511T459 492Q444 492 434 501T423 526Q423 546 436 562Z" />
<glyph unicode="&#xa4;" glyph-name="currency" horiz-adv-x="557" d="M392 197Q350 249 350 316Q350 383 393 436L349 480L377 508L421 464Q445 484 476 495T540 506Q606 506 659 463L704 508L732 480L687 435Q729 382 729 316Q729 249 687 197L731 154L703 125L659
169Q606 127 540 127Q471 127 421 168L378 125L349 154L392 197ZM391 275T411 240T466 185T540 164Q580 164 614 184T668 240T688 316Q688 356 668 391T614 448T540 469Q500 469 466 448T411 392T391 316Q391 275 411 240Z" />
<glyph unicode="&#xa5;" glyph-name="yen" horiz-adv-x="666" d="M674 622T687 607T701 569Q701 544 686 522T642 499Q622 499 613 510T604 539Q604 554 613 571T636 601H633Q608 600 578 579Q532 544 481 480T382 316H519L514 296H372L362 273L347 216H495L490
196H342L319 106Q310 68 310 57Q310 36 324 29T378 20L373 0Q328 3 249 3Q162 3 118 0L123 20Q159 22 177 28T206 51T226 106L249 196H95L100 216H254L274 290Q273 292 273 296H119L124 316H271Q242 567 180 567Q163 567 152 556T132 520L104 438H82L115 535Q131
582 151 602T213 622Q254 622 279 593T319 510T349 360L356 316H359Q430 465 527 561Q553 587 584 604T645 622Q674 622 687 607Z" />
<glyph unicode="&#xa6;" glyph-name="brokenbar" horiz-adv-x="322" d="M191 384H151V858H191V384ZM151 326H191V-195H151V326Z" />
<glyph unicode="&#xa7;" glyph-name="section" horiz-adv-x="538" d="M426 630T440 647T478 671Q469 680 441 687T381 695Q314 695 274 667T233 594Q233 564 245 547T292 499L420 386Q457 353 472 330T488 278Q488 232 454 196T364 134Q378 118 384 103T390 68Q390
20 356 -17T270 -75T163 -95Q141 -95 111 -91T54 -75Q12 -56 12 -21Q12 5 31 25T79 46Q97 46 108 37T120 9Q120 -11 105 -28T68 -52Q77 -61 104 -68T162 -76Q224 -76 266 -49T309 31Q309 55 297 74T254 120L126 233Q89 267 74 290T59 342Q59 389 93 424T182 485Q168
501 162 516T156 551Q156 599 190 636T276 694T382 714Q404 714 435 710T492 694Q535 674 535 640Q535 614 515 594T467 573Q449 573 438 582T426 610Q426 630 440 647ZM204 460T191 475Q123 437 123 384Q123 364 134 349T176 306L312 186Q341 160 355 145Q385
160 404 182T423 234Q423 254 412 270T370 313L234 433Q204 460 191 475Z" />
<glyph unicode="&#xa8;" glyph-name="dieresis" horiz-adv-x="428" d="M168 747T188 767T235 788Q256 788 270 774T285 738Q285 713 265 693T218 672Q196 672 182 686T168 723Q168 747 188 767ZM380 747T400 767T447 788Q468 788 482 774T497 738Q497 713 477
693T430 672Q408 672 394 686T380 723Q380 747 400 767Z" />
<glyph unicode="&#xa9;" glyph-name="copyright" horiz-adv-x="924" d="M88 492T141 583T286 728T486 782Q594 782 685 729T830 584T884 384Q884 276 831 185T686 40T486 -14Q378 -14 287 39T142 184T88 384Q88 492 141 583ZM128 285T176 201T306 68T486 18Q583
18 665 67T796 201T844 384Q844 483 796 567T666 700T486 750Q389 750 307 701T176 567T128 384Q128 285 176 201ZM553 156T591 181T655 259L674 252Q657 195 611 154T491 113Q428 113 378 145T298 237T269 378Q269 459 298 522T381 621T503 656Q568 656 616 626T665
547Q665 521 650 506T612 491Q589 491 573 505T557 545Q557 566 568 579T599 596Q589 614 564 626T509 638Q450 638 408 580T366 390Q366 269 406 213T509 156Q553 156 591 181Z" />
<glyph unicode="&#xaa;" glyph-name="ordfeminine" horiz-adv-x="454" d="M436 478H455L437 429Q423 390 402 375T347 360Q325 360 315 369T304 401Q304 421 313 454L325 497Q259 360 175 360Q139 360 118 382T97 440Q97 498 135 564T231 676T342 722Q356 722
367 714T380 687L387 713Q427 713 457 722L363 430Q358 413 358 405Q358 389 374 389Q390 389 402 403T427 453L436 478ZM216 385T246 414T304 490T352 590L372 660Q371 698 347 698Q313 698 271 659T200 558T170 432Q170 385 195 385Q216 385 246 414Z" />
<glyph unicode="&#xab;" glyph-name="guillemotleft" horiz-adv-x="553" d="M155 274T188 195T234 50H216Q144 220 48 307V309Q130 356 201 418T344 562H362Q326 500 254 422T123 308Q155 274 188 195ZM347 274T380 195T426 50H408Q336 220 240 307V309Q322 356
393 418T536 562H554Q518 500 446 422T315 308Q347 274 380 195Z" />
<glyph unicode="&#xac;" glyph-name="logicalnot" horiz-adv-x="661" d="M103 370H604L545 165H509L559 340H94L103 370Z" />
<glyph unicode="&#xad;" glyph-name="uni00AD" horiz-adv-x="504" />
<glyph unicode="&#xae;" glyph-name="registered" horiz-adv-x="699" d="M481 782T545 745T646 643T684 503Q684 427 647 363T545 262T405 224Q329 224 265 261T164 363T126 503Q126 579 163 643T265 744T405 782Q481 782 545 745ZM470 256T524 289T610 379T642
503Q642 570 611 626T525 716T405 750Q340 750 286 717T200 627T168 503Q168 436 199 380T285 290T405 256Q470 256 524 289ZM550 364T554 372L564 365Q558 353 548 349T520 344Q495 344 483 353T465 385L448 459Q444 479 437 488T413 500T360 505V404Q360 381
364 375T383 367V352L332 353L280 352V367Q295 369 299 375T303 404V623Q303 646 299 652T280 661V676Q292 675 328 675L414 676Q471 676 500 656T530 597Q530 529 432 512Q472 508 489 495T512 454L524 397Q525 393 527 383T532 369T542 364Q550 364 554 372ZM374
661T367 655T360 628V521H384Q433 521 450 538T468 587Q468 625 452 643T398 661Q374 661 367 655Z" />
<glyph unicode="&#xaf;" glyph-name="overscore" horiz-adv-x="412" d="M517 719H165L171 744H523L517 719Z" />
<glyph unicode="&#xb0;" glyph-name="degree" horiz-adv-x="335" d="M312 820T347 787T383 700Q383 646 348 613T261 579Q211 579 176 612T140 700Q140 754 175 787T261 820Q312 820 347 787ZM299 596T328 623T358 699Q358 747 328 775T261 803Q224 803 195 775T165
699Q165 650 194 623T261 596Q299 596 328 623Z" />
<glyph unicode="&#xb1;" glyph-name="plusminus" horiz-adv-x="635" d="M0 30H501L492 0H-9L0 30ZM317 370L384 606H420L353 370H585L576 340H344L277 105H241L308 340H75L84 370H317Z" />
<glyph unicode="&#xb2;" glyph-name="uni00B2" horiz-adv-x="341" d="M331 754T352 740T373 697Q373 653 334 615T223 527Q187 502 172 490Q194 490 235 481Q241 480 263 476T298 472Q319 472 332 481T345 507Q345 518 341 526L358 533Q368 518 368 501Q368 472
344 453T278 433Q259 433 221 441Q179 451 146 451Q127 451 114 448T81 437L85 455L121 478Q205 531 259 579T314 677Q314 720 260 720Q198 720 153 668L139 679Q165 711 205 732T294 754Q331 754 352 740Z" />
<glyph unicode="&#xb3;" glyph-name="uni00B3" horiz-adv-x="326" d="M335 754T357 741T379 700Q379 661 335 630T240 586Q287 584 318 567T349 512Q349 465 301 429T182 372T43 346V364Q103 369 160 389T253 442T289 520Q289 570 234 572Q215 562 202 562Q195
562 190 565T184 575Q184 594 228 592Q271 608 296 632T321 686Q321 704 309 713T274 723Q214 723 158 667L144 679Q169 708 210 731T299 754Q335 754 357 741Z" />
<glyph unicode="&#xb4;" glyph-name="acute" horiz-adv-x="276" d="M198 712T233 738T280 773Q329 811 352 825Q370 836 390 836Q411 836 418 820Q420 814 420 810Q420 797 410 786T385 766Q366 755 339 745T306 732Q219 699 163 672L156 683Q198 712 233 738Z" />
<glyph unicode="&#xb6;" glyph-name="paragraph" horiz-adv-x="641" d="M187 0T108 57T29 216Q29 334 94 423T263 561T481 609Q510 609 562 607L631 606Q672 606 692 608L687 589Q640 587 621 572T592 521L473 80Q438 -48 373 -118T215 -188Q169 -188 141 -174T113
-133Q113 -107 130 -90T172 -72Q187 -72 196 -80T205 -103Q205 -136 170 -167Q185 -172 205 -172Q249 -172 276 -153T320 -99T359 0Q187 0 108 57ZM385 203T376 139T366 43Q366 28 368 28L509 556Q506 556 489 520T451 426T411 306Q307 306 218 301T127 291Q126
287 212 282T403 277Q385 203 376 139Z" />
<glyph unicode="&#xb7;" glyph-name="middot" horiz-adv-x="276" d="M79 325T101 348T153 372Q176 372 190 357T204 320Q204 290 181 267T129 244Q107 244 93 258T79 295Q79 325 101 348Z" />
<glyph unicode="&#xb8;" glyph-name="cedilla" horiz-adv-x="290" d="M94 -72Q118 -65 145 -65Q170 -65 184 -75T198 -105Q198 -145 150 -166T45 -188Q12 -188 -14 -182T-55 -166L-48 -151Q-15 -164 32 -164Q65 -164 99 -152T134 -113Q134 -89 96 -89Q76 -89 55
-96L103 4H130L94 -72Z" />
<glyph unicode="&#xb9;" glyph-name="uni00B9" horiz-adv-x="253" d="M215 437H156L237 688Q206 670 179 658T111 634L116 653Q179 672 215 694T297 753H316L215 437Z" />
<glyph unicode="&#xba;" glyph-name="ordmasculine" horiz-adv-x="411" d="M107 518T132 578T206 680T319 722Q373 722 403 696T434 617Q434 564 409 504T335 403T222 361Q168 361 138 387T107 465Q107 518 132 578ZM279 704T248 663T198 560T179 437Q179 379
227 379Q262 379 293 420T343 523T362 646Q362 704 314 704Q279 704 248 663Z" />
<glyph unicode="&#xbb;" glyph-name="guillemotright" horiz-adv-x="549" d="M223 390T319 304V303Q237 256 166 194T23 50H5Q41 112 113 190T244 304Q212 338 179 417T133 562H151Q223 390 319 304ZM414 390T510 304V303Q428 256 357 194T214 50H196Q232 112
304 190T435 304Q403 338 370 417T324 562H342Q414 390 510 304Z" />
<glyph unicode="&#xbc;" glyph-name="onequarter" horiz-adv-x="606" d="M734 811L-99 -55L-114 -42L719 824L734 811ZM215 437H156L237 688Q206 670 179 658T111 634L116 653Q179 672 215 694T297 753H316L215 437ZM402 73H458L447 32H390L356 -85H304L338 32H149L154
50L454 317H473L402 73ZM350 73L399 243L207 73H350Z" />
<glyph unicode="&#xbd;" glyph-name="onehalf" horiz-adv-x="606" d="M734 811L-99 -55L-114 -42L719 824L734 811ZM215 437H156L237 688Q206 670 179 658T111 634L116 653Q179 672 215 694T297 753H316L215 437ZM498 317T519 303T540 260Q540 216 501 178T390
90Q354 65 339 53Q361 53 402 44Q408 43 430 39T465 35Q486 35 499 44T512 70Q512 81 508 89L525 96Q535 81 535 64Q535 35 511 16T445 -4Q426 -4 388 4Q346 14 313 14Q294 14 281 11T248 0L252 18L288 41Q372 94 426 142T481 240Q481 283 427 283Q365 283 320
231L306 242Q332 274 372 295T461 317Q498 317 519 303Z" />
<glyph unicode="&#xbe;" glyph-name="threequarters" horiz-adv-x="706" d="M834 811L1 -55L-14 -42L819 824L834 811ZM335 754T357 741T379 700Q379 661 335 630T240 586Q287 584 318 567T349 512Q349 465 301 429T182 372T43 346V364Q103 369 160 389T253 442T289
520Q289 570 234 572Q215 562 202 562Q195 562 190 565T184 575Q184 594 228 592Q271 608 296 632T321 686Q321 704 309 713T274 723Q214 723 158 667L144 679Q169 708 210 731T299 754Q335 754 357 741ZM502 73H558L547 32H490L456 -85H404L438 32H249L254 50L554
317H573L502 73ZM450 73L499 243L307 73H450Z" />
<glyph unicode="&#xbf;" glyph-name="questiondown" horiz-adv-x="441" d="M220 575T242 598T294 622Q317 622 331 607T345 570Q345 540 322 517T270 494Q248 494 234 508T220 545Q220 575 242 598ZM194 3T231 16T278 52Q269 54 261 65T253 92Q253 113 268 127T306
141Q326 141 336 130T346 99Q346 67 316 41T238 1T136 -14Q75 -14 38 9T0 74Q0 100 14 120T61 163T155 222L191 242Q237 268 257 282T290 312T302 352Q302 379 284 396T234 413Q202 413 172 401T129 369Q138 368 146 358T155 334Q155 318 142 306T110 293Q76 293
76 328Q76 358 103 381T172 417T254 430Q306 430 337 405T369 334Q369 302 348 276T294 228T193 167Q126 128 102 108T78 61Q78 36 98 20T155 3Q194 3 231 16Z" />
<glyph unicode="&#xc0;" glyph-name="Agrave" horiz-adv-x="629" d="M507 51T521 36T553 20L549 0Q509 3 440 3Q359 3 320 0L324 20Q358 22 376 28T403 52T410 104L401 268H155L80 162Q33 96 33 63Q33 22 107 20L102 0Q47 3 -12 3Q-55 3 -87 0L-82 20Q-36 30 18
107L449 713H464L504 84Q507 51 521 36ZM400 288L383 591L169 288H400ZM446 802T389 843Q349 870 329 889Q310 908 310 928Q310 940 317 948Q326 958 340 958Q351 958 363 952T383 937Q399 920 425 879Q474 809 497 779L487 769Q446 802 389 843Z" />
<glyph unicode="&#xc1;" glyph-name="Aacute" horiz-adv-x="629" d="M507 51T521 36T553 20L549 0Q509 3 440 3Q359 3 320 0L324 20Q358 22 376 28T403 52T410 104L401 268H155L80 162Q33 96 33 63Q33 22 107 20L102 0Q47 3 -12 3Q-55 3 -87 0L-82 20Q-36 30 18
107L449 713H464L504 84Q507 51 521 36ZM400 288L383 591L169 288H400ZM485 812T520 838T567 873Q616 911 639 925Q657 936 677 936Q698 936 705 920Q707 914 707 910Q707 897 697 886T672 866Q653 855 626 845T593 832Q506 799 450 772L443 783Q485 812 520 838Z"
/>
<glyph unicode="&#xc2;" glyph-name="Acircumflex" horiz-adv-x="629" d="M507 51T521 36T553 20L549 0Q509 3 440 3Q359 3 320 0L324 20Q358 22 376 28T403 52T410 104L401 268H155L80 162Q33 96 33 63Q33 22 107 20L102 0Q47 3 -12 3Q-55 3 -87 0L-82 20Q-36
30 18 107L449 713H464L504 84Q507 51 521 36ZM400 288L383 591L169 288H400ZM358 793T263 772L258 786Q330 808 392 842T493 916H511Q539 868 570 837T650 786L646 772Q592 782 559 795T501 822T469 840Q358 793 263 772Z" />
<glyph unicode="&#xc3;" glyph-name="Atilde" horiz-adv-x="629" d="M507 51T521 36T553 20L549 0Q509 3 440 3Q359 3 320 0L324 20Q358 22 376 28T403 52T410 104L401 268H155L80 162Q33 96 33 63Q33 22 107 20L102 0Q47 3 -12 3Q-55 3 -87 0L-82 20Q-36 30 18
107L449 713H464L504 84Q507 51 521 36ZM400 288L383 591L169 288H400ZM452 895T473 885T520 855Q541 838 556 830T593 822Q631 822 663 880L681 875Q659 823 624 798T551 772Q519 772 498 782T451 812Q430 829 415 837T378 845Q340 845 308 787L290 792Q312 844
347 869T420 895Q452 895 473 885Z" />
<glyph unicode="&#xc4;" glyph-name="Adieresis" horiz-adv-x="629" d="M507 51T521 36T553 20L549 0Q509 3 440 3Q359 3 320 0L324 20Q358 22 376 28T403 52T410 104L401 268H155L80 162Q33 96 33 63Q33 22 107 20L102 0Q47 3 -12 3Q-55 3 -87 0L-82 20Q-36 30
18 107L449 713H464L504 84Q507 51 521 36ZM400 288L383 591L169 288H400ZM318 847T338 867T385 888Q406 888 420 874T435 838Q435 813 415 793T368 772Q346 772 332 786T318 823Q318 847 338 867ZM530 847T550 867T597 888Q618 888 632 874T647 838Q647 813 627
793T580 772Q558 772 544 786T530 823Q530 847 550 867Z" />
<glyph unicode="&#xc5;" glyph-name="Aring" horiz-adv-x="629" d="M507 51T521 36T553 20L549 0Q509 3 440 3Q359 3 320 0L324 20Q358 22 376 28T403 52T410 104L401 268H155L80 162Q33 96 33 63Q33 22 107 20L102 0Q47 3 -12 3Q-55 3 -87 0L-82 20Q-36 30 18
107L449 713H464L504 84Q507 51 521 36ZM400 288L383 591L169 288H400ZM524 925T548 903T573 845Q573 803 540 773T461 742Q425 742 402 763T378 822Q378 865 410 895T487 925Q524 925 548 903ZM497 763T522 787T547 846Q547 873 528 888T483 904Q452 904 428 880T404
823Q404 795 422 779T465 763Q497 763 522 787Z" />
<glyph unicode="&#xc6;" glyph-name="AE" horiz-adv-x="897" d="M871 705T934 708Q921 672 896 590Q887 560 883 528H861Q868 567 868 599Q868 646 847 665T780 685H687Q652 685 635 680T607 657T587 602L524 366H632Q660 366 679 381T709 418T735 478H757Q741
429 730 383L723 356Q712 315 697 234H675Q675 250 678 265Q680 287 680 296Q680 318 669 331T628 346H519L455 106Q446 68 446 57Q446 36 460 30T512 23H615Q663 23 694 39T748 93T794 200H816Q808 178 795 128Q778 69 769 0Q701 3 543 3Q353 3 255 0L259 20Q295
22 313 28T341 51T362 106L426 346H263L40 94Q25 76 18 66T11 47Q11 24 73 20V0Q46 3 -13 3Q-56 3 -80 0V20Q-49 22 6 84L502 645Q503 670 489 678T435 688L440 708Q512 706 556 706L615 773H641L581 706Q640 705 727 705Q871 705 934 708ZM431 366L494 602L496
609L281 366H431Z" />
<glyph unicode="&#xc7;" glyph-name="Ccedilla" horiz-adv-x="670" d="M679 622T648 478H626Q632 517 632 547Q632 595 616 626Q598 663 563 683T485 704Q402 704 325 626T199 430T151 200Q151 104 189 54T294 4Q338 4 387 24T472 82Q498 108 517 142T562 240H584Q537
67 525 0H503Q506 21 506 34Q506 60 494 60Q487 60 473 51Q421 17 382 2T284 -14Q173 -14 112 46T51 221Q51 336 108 453T266 646T487 722Q545 722 575 706T636 657Q643 648 651 648Q660 648 669 662T691 708H712Q679 622 648 478ZM266 -72Q290 -65 317 -65Q342
-65 356 -75T370 -105Q370 -145 322 -166T217 -188Q184 -188 158 -182T117 -166L124 -151Q156 -164 204 -164Q237 -164 271 -152T306 -113Q306 -89 268 -89Q248 -89 227 -96L275 4H302L266 -72Z" />
<glyph unicode="&#xc8;" glyph-name="Egrave" horiz-adv-x="610" d="M583 705T642 708Q616 636 604 590Q593 554 590 528H567Q576 586 576 608Q576 651 554 668T475 685H402Q366 685 349 680T320 657T299 602L236 366H302Q337 366 360 382T396 421T422 477Q425
487 430 498H453Q432 432 418 379L412 356Q398 303 380 214H357L360 234Q361 241 363 256T365 282Q365 312 350 329T296 346H230L166 106Q157 75 157 57Q157 36 172 30T225 23H298Q360 23 397 39T458 92T509 200H532Q521 171 510 128Q494 72 483 0Q415 3 254 3Q62
3 -35 0L-30 20Q6 22 23 28T52 51T73 106L206 602Q215 634 215 651Q215 672 201 679T148 688L153 708Q251 705 443 705Q583 705 642 708ZM411 802T354 843Q314 870 294 889Q275 908 275 928Q275 940 282 948Q291 958 305 958Q316 958 328 952T348 937Q364 920 390
879Q439 809 462 779L452 769Q411 802 354 843Z" />
<glyph unicode="&#xc9;" glyph-name="Eacute" horiz-adv-x="610" d="M583 705T642 708Q616 636 604 590Q593 554 590 528H567Q576 586 576 608Q576 651 554 668T475 685H402Q366 685 349 680T320 657T299 602L236 366H302Q337 366 360 382T396 421T422 477Q425
487 430 498H453Q432 432 418 379L412 356Q398 303 380 214H357L360 234Q361 241 363 256T365 282Q365 312 350 329T296 346H230L166 106Q157 75 157 57Q157 36 172 30T225 23H298Q360 23 397 39T458 92T509 200H532Q521 171 510 128Q494 72 483 0Q415 3 254 3Q62
3 -35 0L-30 20Q6 22 23 28T52 51T73 106L206 602Q215 634 215 651Q215 672 201 679T148 688L153 708Q251 705 443 705Q583 705 642 708ZM450 812T485 838T532 873Q581 911 604 925Q622 936 642 936Q663 936 670 920Q672 914 672 910Q672 897 662 886T637 866Q618
855 591 845T558 832Q471 799 415 772L408 783Q450 812 485 838Z" />
<glyph unicode="&#xca;" glyph-name="Ecircumflex" horiz-adv-x="610" d="M583 705T642 708Q616 636 604 590Q593 554 590 528H567Q576 586 576 608Q576 651 554 668T475 685H402Q366 685 349 680T320 657T299 602L236 366H302Q337 366 360 382T396 421T422 477Q425
487 430 498H453Q432 432 418 379L412 356Q398 303 380 214H357L360 234Q361 241 363 256T365 282Q365 312 350 329T296 346H230L166 106Q157 75 157 57Q157 36 172 30T225 23H298Q360 23 397 39T458 92T509 200H532Q521 171 510 128Q494 72 483 0Q415 3 254 3Q62
3 -35 0L-30 20Q6 22 23 28T52 51T73 106L206 602Q215 634 215 651Q215 672 201 679T148 688L153 708Q251 705 443 705Q583 705 642 708ZM323 793T228 772L223 786Q295 808 357 842T458 916H476Q504 868 535 837T615 786L611 772Q557 782 524 795T466 822T434 840Q323
793 228 772Z" />
<glyph unicode="&#xcb;" glyph-name="Edieresis" horiz-adv-x="610" d="M583 705T642 708Q616 636 604 590Q593 554 590 528H567Q576 586 576 608Q576 651 554 668T475 685H402Q366 685 349 680T320 657T299 602L236 366H302Q337 366 360 382T396 421T422 477Q425
487 430 498H453Q432 432 418 379L412 356Q398 303 380 214H357L360 234Q361 241 363 256T365 282Q365 312 350 329T296 346H230L166 106Q157 75 157 57Q157 36 172 30T225 23H298Q360 23 397 39T458 92T509 200H532Q521 171 510 128Q494 72 483 0Q415 3 254 3Q62
3 -35 0L-30 20Q6 22 23 28T52 51T73 106L206 602Q215 634 215 651Q215 672 201 679T148 688L153 708Q251 705 443 705Q583 705 642 708ZM283 847T303 867T350 888Q371 888 385 874T400 838Q400 813 380 793T333 772Q311 772 297 786T283 823Q283 847 303 867ZM495
847T515 867T562 888Q583 888 597 874T612 838Q612 813 592 793T545 772Q523 772 509 786T495 823Q495 847 515 867Z" />
<glyph unicode="&#xcc;" glyph-name="Igrave" horiz-adv-x="341" d="M157 68T157 57Q157 36 171 29T225 20L221 0Q175 3 94 3Q10 3 -33 0L-28 20Q7 22 24 28T52 51T73 106L205 602Q213 636 213 650Q213 672 199 679T146 688L151 708Q192 705 278 705Q358 705 406
708L401 688Q364 686 347 680T319 657T298 602L166 106Q157 68 157 57ZM273 802T216 843Q176 870 156 889Q137 908 137 928Q137 940 144 948Q153 958 167 958Q178 958 190 952T210 937Q226 920 252 879Q301 809 324 779L314 769Q273 802 216 843Z" />
<glyph unicode="&#xcd;" glyph-name="Iacute" horiz-adv-x="341" d="M157 68T157 57Q157 36 171 29T225 20L221 0Q175 3 94 3Q10 3 -33 0L-28 20Q7 22 24 28T52 51T73 106L205 602Q213 636 213 650Q213 672 199 679T146 688L151 708Q192 705 278 705Q358 705 406
708L401 688Q364 686 347 680T319 657T298 602L166 106Q157 68 157 57ZM312 812T347 838T394 873Q443 911 466 925Q484 936 504 936Q525 936 532 920Q534 914 534 910Q534 897 524 886T499 866Q480 855 453 845T420 832Q333 799 277 772L270 783Q312 812 347 838Z"
/>
<glyph unicode="&#xce;" glyph-name="Icircumflex" horiz-adv-x="341" d="M157 68T157 57Q157 36 171 29T225 20L221 0Q175 3 94 3Q10 3 -33 0L-28 20Q7 22 24 28T52 51T73 106L205 602Q213 636 213 650Q213 672 199 679T146 688L151 708Q192 705 278 705Q358
705 406 708L401 688Q364 686 347 680T319 657T298 602L166 106Q157 68 157 57ZM185 793T90 772L85 786Q157 808 219 842T320 916H338Q366 868 397 837T477 786L473 772Q419 782 386 795T328 822T296 840Q185 793 90 772Z" />
<glyph unicode="&#xcf;" glyph-name="Idieresis" horiz-adv-x="341" d="M157 68T157 57Q157 36 171 29T225 20L221 0Q175 3 94 3Q10 3 -33 0L-28 20Q7 22 24 28T52 51T73 106L205 602Q213 636 213 650Q213 672 199 679T146 688L151 708Q192 705 278 705Q358 705
406 708L401 688Q364 686 347 680T319 657T298 602L166 106Q157 68 157 57ZM145 847T165 867T212 888Q233 888 247 874T262 838Q262 813 242 793T195 772Q173 772 159 786T145 823Q145 847 165 867ZM357 847T377 867T424 888Q445 888 459 874T474 838Q474 813 454
793T407 772Q385 772 371 786T357 823Q357 847 377 867Z" />
<glyph unicode="&#xd0;" glyph-name="Eth" horiz-adv-x="725" d="M704 362T642 250T472 69T230 0L172 1Q116 3 90 3Q9 3 -30 0L-27 20Q7 22 24 28T52 51T73 106L204 602Q213 640 213 651Q213 671 199 679T146 688L149 708Q183 705 246 705L331 706Q399 708 422
708Q563 708 633 652T704 487Q704 362 642 250ZM342 18T430 85T563 266T608 512Q608 603 557 646T394 690Q363 690 346 683T317 658T297 604L166 104Q157 68 157 55Q157 36 170 27T218 18Q342 18 430 85ZM432 341H20L26 366H438L432 341Z" />
<glyph unicode="&#xd1;" glyph-name="Ntilde" horiz-adv-x="770" d="M844 754T858 740T872 703Q872 676 856 654T813 631Q793 631 784 642T775 670Q775 686 784 703T807 733H804Q755 732 722 682Q678 616 630 450T521 -5H499L271 639Q222 388 179 215T95 -11Q73
-40 49 -57T-12 -74Q-72 -74 -72 -22Q-72 5 -56 27T-13 49Q7 49 16 38T25 10Q25 -6 16 -23T-7 -53H-4Q47 -52 79 -1Q116 58 156 210T243 602Q249 631 249 647Q249 671 233 678T172 688L177 708Q209 705 266 705Q312 705 347 708L536 155Q579 347 620 487T704 690Q748
754 812 754Q844 754 858 740ZM505 895T526 885T573 855Q594 838 609 830T646 822Q684 822 716 880L734 875Q712 823 677 798T604 772Q572 772 551 782T504 812Q483 829 468 837T431 845Q393 845 361 787L343 792Q365 844 400 869T473 895Q505 895 526 885Z" />
<glyph unicode="&#xd2;" glyph-name="Ograve" horiz-adv-x="729" d="M54 339T107 455T255 646T471 722Q583 722 645 659T707 481Q707 368 654 253T504 62T289 -14Q178 -14 116 49T54 226Q54 339 107 455ZM387 704T317 632T203 446T160 213Q160 116 198 60T298
4Q373 4 443 76T557 262T600 495Q600 592 562 648T462 704Q387 704 317 632ZM454 802T397 843Q357 870 337 889Q318 908 318 928Q318 940 325 948Q334 958 348 958Q359 958 371 952T391 937Q407 920 433 879Q482 809 505 779L495 769Q454 802 397 843Z" />
<glyph unicode="&#xd3;" glyph-name="Oacute" horiz-adv-x="729" d="M54 339T107 455T255 646T471 722Q583 722 645 659T707 481Q707 368 654 253T504 62T289 -14Q178 -14 116 49T54 226Q54 339 107 455ZM387 704T317 632T203 446T160 213Q160 116 198 60T298
4Q373 4 443 76T557 262T600 495Q600 592 562 648T462 704Q387 704 317 632ZM493 812T528 838T575 873Q624 911 647 925Q665 936 685 936Q706 936 713 920Q715 914 715 910Q715 897 705 886T680 866Q661 855 634 845T601 832Q514 799 458 772L451 783Q493 812 528
838Z" />
<glyph unicode="&#xd4;" glyph-name="Ocircumflex" horiz-adv-x="729" d="M54 339T107 455T255 646T471 722Q583 722 645 659T707 481Q707 368 654 253T504 62T289 -14Q178 -14 116 49T54 226Q54 339 107 455ZM387 704T317 632T203 446T160 213Q160 116 198 60T298
4Q373 4 443 76T557 262T600 495Q600 592 562 648T462 704Q387 704 317 632ZM366 793T271 772L266 786Q338 808 400 842T501 916H519Q547 868 578 837T658 786L654 772Q600 782 567 795T509 822T477 840Q366 793 271 772Z" />
<glyph unicode="&#xd5;" glyph-name="Otilde" horiz-adv-x="729" d="M54 339T107 455T255 646T471 722Q583 722 645 659T707 481Q707 368 654 253T504 62T289 -14Q178 -14 116 49T54 226Q54 339 107 455ZM387 704T317 632T203 446T160 213Q160 116 198 60T298
4Q373 4 443 76T557 262T600 495Q600 592 562 648T462 704Q387 704 317 632ZM460 895T481 885T528 855Q549 838 564 830T601 822Q639 822 671 880L689 875Q667 823 632 798T559 772Q527 772 506 782T459 812Q438 829 423 837T386 845Q348 845 316 787L298 792Q320
844 355 869T428 895Q460 895 481 885Z" />
<glyph unicode="&#xd6;" glyph-name="Odieresis" horiz-adv-x="729" d="M54 339T107 455T255 646T471 722Q583 722 645 659T707 481Q707 368 654 253T504 62T289 -14Q178 -14 116 49T54 226Q54 339 107 455ZM387 704T317 632T203 446T160 213Q160 116 198 60T298
4Q373 4 443 76T557 262T600 495Q600 592 562 648T462 704Q387 704 317 632ZM326 847T346 867T393 888Q414 888 428 874T443 838Q443 813 423 793T376 772Q354 772 340 786T326 823Q326 847 346 867ZM538 847T558 867T605 888Q626 888 640 874T655 838Q655 813
635 793T588 772Q566 772 552 786T538 823Q538 847 558 867Z" />
<glyph unicode="&#xd7;" glyph-name="multiply" horiz-adv-x="513" d="M250 355L125 530L151 548L274 373L501 550L517 528L290 352L415 179L390 161L266 334L42 160L27 182L250 355Z" />
<glyph unicode="&#xd8;" glyph-name="Oslash" horiz-adv-x="729" d="M666 633Q707 574 707 481Q707 368 654 253T504 62T289 -14Q176 -14 114 51L-3 -73L-20 -59L99 68Q54 129 54 226Q54 339 107 455T255 646T471 722Q592 722 654 649L772 773L787 760L666 633ZM387
704T317 632T203 446T160 213Q160 171 168 133L589 587Q573 643 540 673T462 704Q387 704 317 632ZM373 4T443 76T557 262T600 495Q600 532 594 562L175 108Q191 59 223 32T298 4Q373 4 443 76Z" />
<glyph unicode="&#xd9;" glyph-name="Ugrave" horiz-adv-x="682" d="M638 617T638 636Q638 664 621 675T564 688L569 708Q604 705 670 705Q729 705 764 708L759 688Q724 686 705 678T674 650T653 592L575 291Q539 153 477 79Q440 36 387 11T272 -14Q165 -14 118
40Q100 61 92 85T83 142Q83 196 108 288L191 602Q199 636 199 650Q199 672 185 679T132 688L138 708Q178 705 267 705Q344 705 392 708L386 688Q349 686 332 680T304 657T283 602L195 271Q173 186 173 136Q173 81 200 51T291 21Q396 21 456 89T549 280L631 592Q638
617 638 636ZM464 802T407 843Q367 870 347 889Q328 908 328 928Q328 940 335 948Q344 958 358 958Q369 958 381 952T401 937Q417 920 443 879Q492 809 515 779L505 769Q464 802 407 843Z" />
<glyph unicode="&#xda;" glyph-name="Uacute" horiz-adv-x="682" d="M638 617T638 636Q638 664 621 675T564 688L569 708Q604 705 670 705Q729 705 764 708L759 688Q724 686 705 678T674 650T653 592L575 291Q539 153 477 79Q440 36 387 11T272 -14Q165 -14 118
40Q100 61 92 85T83 142Q83 196 108 288L191 602Q199 636 199 650Q199 672 185 679T132 688L138 708Q178 705 267 705Q344 705 392 708L386 688Q349 686 332 680T304 657T283 602L195 271Q173 186 173 136Q173 81 200 51T291 21Q396 21 456 89T549 280L631 592Q638
617 638 636ZM503 812T538 838T585 873Q634 911 657 925Q675 936 695 936Q716 936 723 920Q725 914 725 910Q725 897 715 886T690 866Q671 855 644 845T611 832Q524 799 468 772L461 783Q503 812 538 838Z" />
<glyph unicode="&#xdb;" glyph-name="Ucircumflex" horiz-adv-x="682" d="M638 617T638 636Q638 664 621 675T564 688L569 708Q604 705 670 705Q729 705 764 708L759 688Q724 686 705 678T674 650T653 592L575 291Q539 153 477 79Q440 36 387 11T272 -14Q165 -14
118 40Q100 61 92 85T83 142Q83 196 108 288L191 602Q199 636 199 650Q199 672 185 679T132 688L138 708Q178 705 267 705Q344 705 392 708L386 688Q349 686 332 680T304 657T283 602L195 271Q173 186 173 136Q173 81 200 51T291 21Q396 21 456 89T549 280L631
592Q638 617 638 636ZM376 793T281 772L276 786Q348 808 410 842T511 916H529Q557 868 588 837T668 786L664 772Q610 782 577 795T519 822T487 840Q376 793 281 772Z" />
<glyph unicode="&#xdc;" glyph-name="Udieresis" horiz-adv-x="682" d="M638 617T638 636Q638 664 621 675T564 688L569 708Q604 705 670 705Q729 705 764 708L759 688Q724 686 705 678T674 650T653 592L575 291Q539 153 477 79Q440 36 387 11T272 -14Q165 -14
118 40Q100 61 92 85T83 142Q83 196 108 288L191 602Q199 636 199 650Q199 672 185 679T132 688L138 708Q178 705 267 705Q344 705 392 708L386 688Q349 686 332 680T304 657T283 602L195 271Q173 186 173 136Q173 81 200 51T291 21Q396 21 456 89T549 280L631
592Q638 617 638 636ZM336 847T356 867T403 888Q424 888 438 874T453 838Q453 813 433 793T386 772Q364 772 350 786T336 823Q336 847 356 867ZM548 847T568 867T615 888Q636 888 650 874T665 838Q665 813 645 793T598 772Q576 772 562 786T548 823Q548 847 568
867Z" />
<glyph unicode="&#xdd;" glyph-name="Yacute" horiz-adv-x="670" d="M729 722T742 707T756 669Q756 644 741 622T697 599Q677 599 668 610T659 639Q659 655 668 671T691 701H688Q661 700 633 679Q581 641 521 557T404 338L346 106Q338 72 338 58Q338 36 352 29T405
20L400 0Q355 3 276 3Q189 3 145 0L150 20Q186 22 204 28T233 51T253 106L312 339Q296 481 269 574T195 667Q178 667 167 656T147 620L119 538H97L130 635Q146 682 166 702T228 722Q281 722 313 679T364 559T395 360Q432 453 480 528T582 657Q647 722 700 722Q729
722 742 707ZM499 812T534 838T581 873Q630 911 653 925Q671 936 691 936Q712 936 719 920Q721 914 721 910Q721 897 711 886T686 866Q667 855 640 845T607 832Q520 799 464 772L457 783Q499 812 534 838Z" />
<glyph unicode="&#xde;" glyph-name="Thorn" horiz-adv-x="605" d="M166 106Q157 68 157 57Q157 36 171 29T225 20L221 0Q175 3 94 3Q10 3 -33 0L-28 20Q7 22 24 28T52 51T73 106L205 602Q213 636 213 650Q213 672 199 679T146 688L151 708Q192 705 278 705Q358
705 406 708L401 688Q364 686 347 680T319 657T298 602L290 573Q360 575 396 575Q494 575 544 535T595 424Q595 346 548 284T414 187T218 152H178L166 106ZM184 172H228Q368 172 431 245T494 440Q494 499 464 527T367 556Q318 556 285 553L184 172Z" />
<glyph unicode="&#xdf;" glyph-name="germandbls" horiz-adv-x="613" d="M3 -176T-37 -188L117 377Q151 503 228 562T410 622Q483 622 523 595T563 517Q563 456 506 407T362 334Q450 326 490 285T530 185Q530 129 496 84T404 12T282 -14Q234 -14 204 0T174 42Q174
63 190 81T231 100Q249 100 260 88T272 59Q272 43 261 30T233 9Q255 2 284 2Q327 2 361 27T415 94T434 185Q434 242 409 283T342 325Q334 323 318 318T290 313Q280 313 275 316T270 325Q270 334 278 339T297 345Q313 345 324 344T348 336Q405 355 436 405T467 517Q467
560 450 583T390 607Q340 607 296 569T225 434L60 -174Q3 -176 -37 -188Z" />
<glyph unicode="&#xe0;" glyph-name="agrave" horiz-adv-x="632" d="M509 51T523 36T554 20L549 0Q509 3 440 3Q359 3 320 0L325 20Q372 22 392 35T412 84Q412 97 411 104L396 228H142L74 143Q35 94 35 63Q35 26 95 20V0Q65 3 4 3Q-57 3 -83 0V20Q-39 32 26 113L428
615H443L505 84Q509 51 523 36ZM394 248L363 502L158 248H394ZM425 702T368 743Q328 770 308 789Q289 808 289 828Q289 840 296 848Q305 858 319 858Q330 858 342 852T362 837Q378 820 404 779Q453 709 476 679L466 669Q425 702 368 743Z" />
<glyph unicode="&#xe1;" glyph-name="aacute" horiz-adv-x="632" d="M509 51T523 36T554 20L549 0Q509 3 440 3Q359 3 320 0L325 20Q372 22 392 35T412 84Q412 97 411 104L396 228H142L74 143Q35 94 35 63Q35 26 95 20V0Q65 3 4 3Q-57 3 -83 0V20Q-39 32 26 113L428
615H443L505 84Q509 51 523 36ZM394 248L363 502L158 248H394ZM404 712T439 738T486 773Q535 811 558 825Q576 836 596 836Q617 836 624 820Q626 814 626 810Q626 797 616 786T591 766Q572 755 545 745T512 732Q425 699 369 672L362 683Q404 712 439 738Z" />
<glyph unicode="&#xe2;" glyph-name="acircumflex" horiz-adv-x="632" d="M509 51T523 36T554 20L549 0Q509 3 440 3Q359 3 320 0L325 20Q372 22 392 35T412 84Q412 97 411 104L396 228H142L74 143Q35 94 35 63Q35 26 95 20V0Q65 3 4 3Q-57 3 -83 0V20Q-39 32
26 113L428 615H443L505 84Q509 51 523 36ZM394 248L363 502L158 248H394ZM339 693T244 672L239 686Q311 708 373 742T474 816H492Q520 768 551 737T631 686L627 672Q573 682 540 695T482 722T450 740Q339 693 244 672Z" />
<glyph unicode="&#xe3;" glyph-name="atilde" horiz-adv-x="632" d="M509 51T523 36T554 20L549 0Q509 3 440 3Q359 3 320 0L325 20Q372 22 392 35T412 84Q412 97 411 104L396 228H142L74 143Q35 94 35 63Q35 26 95 20V0Q65 3 4 3Q-57 3 -83 0V20Q-39 32 26 113L428
615H443L505 84Q509 51 523 36ZM394 248L363 502L158 248H394ZM426 795T447 785T494 755Q515 738 530 730T567 722Q605 722 637 780L655 775Q633 723 598 698T525 672Q493 672 472 682T425 712Q404 729 389 737T352 745Q314 745 282 687L264 692Q286 744 321 769T394
795Q426 795 447 785Z" />
<glyph unicode="&#xe4;" glyph-name="adieresis" horiz-adv-x="632" d="M509 51T523 36T554 20L549 0Q509 3 440 3Q359 3 320 0L325 20Q372 22 392 35T412 84Q412 97 411 104L396 228H142L74 143Q35 94 35 63Q35 26 95 20V0Q65 3 4 3Q-57 3 -83 0V20Q-39 32 26
113L428 615H443L505 84Q509 51 523 36ZM394 248L363 502L158 248H394ZM289 747T309 767T356 788Q377 788 391 774T406 738Q406 713 386 693T339 672Q317 672 303 686T289 723Q289 747 309 767ZM501 747T521 767T568 788Q589 788 603 774T618 738Q618 713 598 693T551
672Q529 672 515 686T501 723Q501 747 521 767Z" />
<glyph unicode="&#xe5;" glyph-name="aring" horiz-adv-x="632" d="M509 51T523 36T554 20L549 0Q509 3 440 3Q359 3 320 0L325 20Q372 22 392 35T412 84Q412 97 411 104L396 228H142L74 143Q35 94 35 63Q35 26 95 20V0Q65 3 4 3Q-57 3 -83 0V20Q-39 32 26 113L428
615H443L505 84Q509 51 523 36ZM394 248L363 502L158 248H394ZM512 825T536 803T561 745Q561 703 528 673T449 642Q413 642 390 663T366 722Q366 765 398 795T475 825Q512 825 536 803ZM485 663T510 687T535 746Q535 773 516 788T471 804Q440 804 416 780T392 723Q392
695 410 679T453 663Q485 663 510 687Z" />
<glyph unicode="&#xe6;" glyph-name="ae" horiz-adv-x="910" d="M850 605T913 608Q900 572 875 490Q866 460 862 428H840Q847 467 847 499Q847 546 826 565T759 585H666Q631 585 614 580T586 557T566 502L516 316H621Q649 316 668 331T698 368T724 428H746Q730
379 719 333L712 306Q701 265 686 184H664Q664 200 667 215Q669 237 669 246Q669 268 658 281T617 296H511L460 106Q451 68 451 57Q451 36 465 30T517 23H620Q668 23 699 39T753 93T799 200H821Q813 178 800 128Q783 69 774 0Q706 3 548 3Q358 3 260 0L264 20Q300
22 318 28T346 51T367 106L418 296H224L45 94Q30 76 23 66T16 47Q16 24 78 20V0Q51 3 -8 3Q-51 3 -75 0V20Q-44 22 11 84L453 584Q442 586 414 588L419 608Q436 607 473 607L521 661H547L499 606Q578 605 706 605Q850 605 913 608ZM423 316L473 502Q482 534 482
551Q482 569 472 576L242 316H423Z" />
<glyph unicode="&#xe7;" glyph-name="ccedilla" horiz-adv-x="665" d="M164 -14T103 40T42 196Q42 297 93 396T237 558T452 622Q507 622 540 605T600 557Q608 548 614 548Q634 548 655 608H677Q646 518 612 378H590Q596 429 596 455Q596 477 593 493T580 526Q562
564 526 584T443 604Q364 604 295 538T184 372T142 176Q142 93 179 49T283 4Q329 4 378 24T463 82Q489 109 508 143T553 240H575Q528 67 516 0H494Q497 21 497 34Q497 60 484 60Q476 60 464 51Q418 19 375 3T274 -14Q164 -14 103 40ZM257 -72Q281 -65 308 -65Q333
-65 347 -75T361 -105Q361 -145 313 -166T208 -188Q175 -188 149 -182T108 -166L115 -151Q148 -164 195 -164Q228 -164 262 -152T297 -113Q297 -89 259 -89Q239 -89 218 -96L266 4H293L257 -72Z" />
<glyph unicode="&#xe8;" glyph-name="egrave" horiz-adv-x="619" d="M558 605T624 608Q605 561 588 500Q573 442 571 428H548Q557 472 557 501Q557 547 533 566T450 585H377Q341 585 323 580T295 557T274 502L224 316H317Q362 316 386 347T430 428H453Q429 357
417 306L411 284Q396 227 390 184H367Q368 190 370 205T372 231Q372 261 357 278T301 296H218L167 106Q158 68 158 58Q158 36 172 30T226 23H299Q354 23 390 40T454 95T507 200H530Q512 147 506 118Q495 81 481 0Q411 3 246 3Q61 3 -34 0L-29 20Q7 22 25 28T53
51T74 106L181 502Q190 540 190 551Q190 572 176 579T123 588L128 608Q222 605 407 605Q558 605 624 608ZM389 702T332 743Q292 770 272 789Q253 808 253 828Q253 840 260 848Q269 858 283 858Q294 858 306 852T326 837Q342 820 368 779Q417 709 440 679L430 669Q389
702 332 743Z" />
<glyph unicode="&#xe9;" glyph-name="eacute" horiz-adv-x="619" d="M558 605T624 608Q605 561 588 500Q573 442 571 428H548Q557 472 557 501Q557 547 533 566T450 585H377Q341 585 323 580T295 557T274 502L224 316H317Q362 316 386 347T430 428H453Q429 357
417 306L411 284Q396 227 390 184H367Q368 190 370 205T372 231Q372 261 357 278T301 296H218L167 106Q158 68 158 58Q158 36 172 30T226 23H299Q354 23 390 40T454 95T507 200H530Q512 147 506 118Q495 81 481 0Q411 3 246 3Q61 3 -34 0L-29 20Q7 22 25 28T53
51T74 106L181 502Q190 540 190 551Q190 572 176 579T123 588L128 608Q222 605 407 605Q558 605 624 608ZM368 712T403 738T450 773Q499 811 522 825Q540 836 560 836Q581 836 588 820Q590 814 590 810Q590 797 580 786T555 766Q536 755 509 745T476 732Q389 699
333 672L326 683Q368 712 403 738Z" />
<glyph unicode="&#xea;" glyph-name="ecircumflex" horiz-adv-x="619" d="M558 605T624 608Q605 561 588 500Q573 442 571 428H548Q557 472 557 501Q557 547 533 566T450 585H377Q341 585 323 580T295 557T274 502L224 316H317Q362 316 386 347T430 428H453Q429
357 417 306L411 284Q396 227 390 184H367Q368 190 370 205T372 231Q372 261 357 278T301 296H218L167 106Q158 68 158 58Q158 36 172 30T226 23H299Q354 23 390 40T454 95T507 200H530Q512 147 506 118Q495 81 481 0Q411 3 246 3Q61 3 -34 0L-29 20Q7 22 25 28T53
51T74 106L181 502Q190 540 190 551Q190 572 176 579T123 588L128 608Q222 605 407 605Q558 605 624 608ZM303 693T208 672L203 686Q275 708 337 742T438 816H456Q484 768 515 737T595 686L591 672Q537 682 504 695T446 722T414 740Q303 693 208 672Z" />
<glyph unicode="&#xeb;" glyph-name="edieresis" horiz-adv-x="619" d="M558 605T624 608Q605 561 588 500Q573 442 571 428H548Q557 472 557 501Q557 547 533 566T450 585H377Q341 585 323 580T295 557T274 502L224 316H317Q362 316 386 347T430 428H453Q429
357 417 306L411 284Q396 227 390 184H367Q368 190 370 205T372 231Q372 261 357 278T301 296H218L167 106Q158 68 158 58Q158 36 172 30T226 23H299Q354 23 390 40T454 95T507 200H530Q512 147 506 118Q495 81 481 0Q411 3 246 3Q61 3 -34 0L-29 20Q7 22 25 28T53
51T74 106L181 502Q190 540 190 551Q190 572 176 579T123 588L128 608Q222 605 407 605Q558 605 624 608ZM253 747T273 767T320 788Q341 788 355 774T370 738Q370 713 350 693T303 672Q281 672 267 686T253 723Q253 747 273 767ZM465 747T485 767T532 788Q553 788
567 774T582 738Q582 713 562 693T515 672Q493 672 479 686T465 723Q465 747 485 767Z" />
<glyph unicode="&#xec;" glyph-name="igrave" horiz-adv-x="344" d="M159 68T159 57Q159 36 173 29T227 20L223 0Q177 3 96 3Q13 3 -31 0L-26 20Q9 22 26 28T54 51T75 106L180 502Q188 536 188 550Q188 572 174 579T121 588L126 608Q167 605 253 605Q333 605 381
608L376 588Q339 586 322 580T294 557T273 502L168 106Q159 68 159 57ZM510 702T453 743Q413 770 393 789Q374 808 374 828Q374 840 381 848Q390 858 404 858Q415 858 427 852T447 837Q463 820 489 779Q538 709 561 679L551 669Q510 702 453 743Z" />
<glyph unicode="&#xed;" glyph-name="iacute" horiz-adv-x="344" d="M159 68T159 57Q159 36 173 29T227 20L223 0Q177 3 96 3Q13 3 -31 0L-26 20Q9 22 26 28T54 51T75 106L180 502Q188 536 188 550Q188 572 174 579T121 588L126 608Q167 605 253 605Q333 605 381
608L376 588Q339 586 322 580T294 557T273 502L168 106Q159 68 159 57ZM233 712T268 738T315 773Q364 811 387 825Q405 836 425 836Q446 836 453 820Q455 814 455 810Q455 797 445 786T420 766Q401 755 374 745T341 732Q254 699 198 672L191 683Q233 712 268 738Z"
/>
<glyph unicode="&#xee;" glyph-name="icircumflex" horiz-adv-x="344" d="M159 68T159 57Q159 36 173 29T227 20L223 0Q177 3 96 3Q13 3 -31 0L-26 20Q9 22 26 28T54 51T75 106L180 502Q188 536 188 550Q188 572 174 579T121 588L126 608Q167 605 253 605Q333
605 381 608L376 588Q339 586 322 580T294 557T273 502L168 106Q159 68 159 57ZM424 693T329 672L324 686Q396 708 458 742T559 816H577Q605 768 636 737T716 686L712 672Q658 682 625 695T567 722T535 740Q424 693 329 672Z" />
<glyph unicode="&#xef;" glyph-name="idieresis" horiz-adv-x="344" d="M159 68T159 57Q159 36 173 29T227 20L223 0Q177 3 96 3Q13 3 -31 0L-26 20Q9 22 26 28T54 51T75 106L180 502Q188 536 188 550Q188 572 174 579T121 588L126 608Q167 605 253 605Q333 605
381 608L376 588Q339 586 322 580T294 557T273 502L168 106Q159 68 159 57ZM374 747T394 767T441 788Q462 788 476 774T491 738Q491 713 471 693T424 672Q402 672 388 686T374 723Q374 747 394 767ZM586 747T606 767T653 788Q674 788 688 774T703 738Q703 713 683
693T636 672Q614 672 600 686T586 723Q586 747 606 767Z" />
<glyph unicode="&#xf0;" glyph-name="eth" horiz-adv-x="724" d="M680 277T625 189T469 51T232 0L174 1Q118 3 92 3Q11 3 -28 0L-25 20Q9 22 26 28T54 51T75 106L180 502Q189 534 189 551Q189 571 175 579T122 588L125 608Q159 605 222 605L307 606Q375 608 398
608Q539 608 609 552T680 387Q680 277 625 189ZM405 18T494 124T584 412Q584 503 533 546T370 590Q339 590 322 583T293 558T273 504L168 104Q159 66 159 54Q159 35 172 27T220 18Q405 18 494 124ZM684 294H272L278 319H690L684 294Z" />
<glyph unicode="&#xf1;" glyph-name="ntilde" horiz-adv-x="797" d="M843 654T857 640T871 603Q871 576 855 554T812 531Q792 531 783 542T774 570Q774 586 783 603T806 633H803Q777 632 758 619T721 582Q677 519 628 376T520 -5H498L270 543Q163 75 94 -11Q70
-41 47 -57T-13 -74Q-73 -74 -73 -22Q-73 5 -57 27T-14 49Q6 49 15 38T24 10Q24 -6 15 -23T-8 -53H-6Q42 -52 78 -1Q150 106 248 540Q250 568 235 577T171 588L176 608Q208 605 265 605Q311 605 346 608L536 137Q632 497 703 590Q751 654 811 654Q843 654 857 640ZM502
795T523 785T570 755Q591 738 606 730T643 722Q681 722 713 780L731 775Q709 723 674 698T601 672Q569 672 548 682T501 712Q480 729 465 737T428 745Q390 745 358 687L340 692Q362 744 397 769T470 795Q502 795 523 785Z" />
<glyph unicode="&#xf2;" glyph-name="ograve" horiz-adv-x="732" d="M180 -14T113 47T46 227Q46 318 97 410T239 562T444 622Q556 622 623 561T690 381Q690 290 639 198T497 46T292 -14Q180 -14 113 47ZM356 604T291 547T190 400T153 213Q153 105 192 55T301 4Q380
4 445 61T546 208T583 395Q583 503 544 553T435 604Q356 604 291 547ZM458 702T401 743Q361 770 341 789Q322 808 322 828Q322 840 329 848Q338 858 352 858Q363 858 375 852T395 837Q411 820 437 779Q486 709 509 679L499 669Q458 702 401 743Z" />
<glyph unicode="&#xf3;" glyph-name="oacute" horiz-adv-x="732" d="M180 -14T113 47T46 227Q46 318 97 410T239 562T444 622Q556 622 623 561T690 381Q690 290 639 198T497 46T292 -14Q180 -14 113 47ZM356 604T291 547T190 400T153 213Q153 105 192 55T301 4Q380
4 445 61T546 208T583 395Q583 503 544 553T435 604Q356 604 291 547ZM437 712T472 738T519 773Q568 811 591 825Q609 836 629 836Q650 836 657 820Q659 814 659 810Q659 797 649 786T624 766Q605 755 578 745T545 732Q458 699 402 672L395 683Q437 712 472 738Z"
/>
<glyph unicode="&#xf4;" glyph-name="ocircumflex" horiz-adv-x="732" d="M180 -14T113 47T46 227Q46 318 97 410T239 562T444 622Q556 622 623 561T690 381Q690 290 639 198T497 46T292 -14Q180 -14 113 47ZM356 604T291 547T190 400T153 213Q153 105 192 55T301
4Q380 4 445 61T546 208T583 395Q583 503 544 553T435 604Q356 604 291 547ZM372 693T277 672L272 686Q344 708 406 742T507 816H525Q553 768 584 737T664 686L660 672Q606 682 573 695T515 722T483 740Q372 693 277 672Z" />
<glyph unicode="&#xf5;" glyph-name="otilde" horiz-adv-x="732" d="M180 -14T113 47T46 227Q46 318 97 410T239 562T444 622Q556 622 623 561T690 381Q690 290 639 198T497 46T292 -14Q180 -14 113 47ZM356 604T291 547T190 400T153 213Q153 105 192 55T301 4Q380
4 445 61T546 208T583 395Q583 503 544 553T435 604Q356 604 291 547ZM459 795T480 785T527 755Q548 738 563 730T600 722Q638 722 670 780L688 775Q666 723 631 698T558 672Q526 672 505 682T458 712Q437 729 422 737T385 745Q347 745 315 687L297 692Q319 744
354 769T427 795Q459 795 480 785Z" />
<glyph unicode="&#xf6;" glyph-name="odieresis" horiz-adv-x="732" d="M180 -14T113 47T46 227Q46 318 97 410T239 562T444 622Q556 622 623 561T690 381Q690 290 639 198T497 46T292 -14Q180 -14 113 47ZM356 604T291 547T190 400T153 213Q153 105 192 55T301
4Q380 4 445 61T546 208T583 395Q583 503 544 553T435 604Q356 604 291 547ZM322 747T342 767T389 788Q410 788 424 774T439 738Q439 713 419 693T372 672Q350 672 336 686T322 723Q322 747 342 767ZM534 747T554 767T601 788Q622 788 636 774T651 738Q651 713
631 693T584 672Q562 672 548 686T534 723Q534 747 554 767Z" />
<glyph unicode="&#xf7;" glyph-name="divide" horiz-adv-x="657" d="M332 510T355 532T405 554Q424 554 435 543T447 514Q447 486 424 465T373 444Q354 444 343 455T332 483Q332 510 355 532ZM96 370H597L588 340H87L96 370ZM249 222T272 244T322 266Q341 266
352 255T364 226Q364 198 341 177T290 155Q272 155 261 166T249 195Q249 222 272 244Z" />
<glyph unicode="&#xf8;" glyph-name="oslash" horiz-adv-x="732" d="M690 499T690 381Q690 290 639 198T497 46T292 -14Q189 -14 124 37L7 -88L-10 -74L108 52Q46 114 46 227Q46 318 97 410T239 562T444 622Q545 622 608 574L721 692L736 679L624 560Q690 499
690 381ZM356 604T291 547T190 400T153 213Q153 151 167 106L558 529Q523 604 435 604Q356 604 291 547ZM380 4T445 61T546 208T583 395Q583 461 567 507L176 83Q211 4 301 4Q380 4 445 61Z" />
<glyph unicode="&#xf9;" glyph-name="ugrave" horiz-adv-x="683" d="M538 153T476 79Q439 36 386 11T271 -14Q159 -14 117 40Q99 63 90 87T81 142Q81 192 107 288L164 502Q172 536 172 550Q172 572 158 579T105 588L111 608Q151 605 240 605Q317 605 365 608L359
588Q322 586 305 580T277 557T256 502L194 271Q172 186 172 136Q172 81 199 51T290 21Q395 21 455 89T548 280L605 492Q612 517 612 537Q612 564 595 575T538 588L543 608Q579 605 644 605Q705 605 738 608L733 588Q688 586 665 566T627 492L574 291Q538 153 476
79ZM432 702T375 743Q335 770 315 789Q296 808 296 828Q296 840 303 848Q312 858 326 858Q337 858 349 852T369 837Q385 820 411 779Q460 709 483 679L473 669Q432 702 375 743Z" />
<glyph unicode="&#xfa;" glyph-name="uacute" horiz-adv-x="683" d="M538 153T476 79Q439 36 386 11T271 -14Q159 -14 117 40Q99 63 90 87T81 142Q81 192 107 288L164 502Q172 536 172 550Q172 572 158 579T105 588L111 608Q151 605 240 605Q317 605 365 608L359
588Q322 586 305 580T277 557T256 502L194 271Q172 186 172 136Q172 81 199 51T290 21Q395 21 455 89T548 280L605 492Q612 517 612 537Q612 564 595 575T538 588L543 608Q579 605 644 605Q705 605 738 608L733 588Q688 586 665 566T627 492L574 291Q538 153 476
79ZM411 712T446 738T493 773Q542 811 565 825Q583 836 603 836Q624 836 631 820Q633 814 633 810Q633 797 623 786T598 766Q579 755 552 745T519 732Q432 699 376 672L369 683Q411 712 446 738Z" />
<glyph unicode="&#xfb;" glyph-name="ucircumflex" horiz-adv-x="683" d="M538 153T476 79Q439 36 386 11T271 -14Q159 -14 117 40Q99 63 90 87T81 142Q81 192 107 288L164 502Q172 536 172 550Q172 572 158 579T105 588L111 608Q151 605 240 605Q317 605 365
608L359 588Q322 586 305 580T277 557T256 502L194 271Q172 186 172 136Q172 81 199 51T290 21Q395 21 455 89T548 280L605 492Q612 517 612 537Q612 564 595 575T538 588L543 608Q579 605 644 605Q705 605 738 608L733 588Q688 586 665 566T627 492L574 291Q538
153 476 79ZM346 693T251 672L246 686Q318 708 380 742T481 816H499Q527 768 558 737T638 686L634 672Q580 682 547 695T489 722T457 740Q346 693 251 672Z" />
<glyph unicode="&#xfc;" glyph-name="udieresis" horiz-adv-x="683" d="M538 153T476 79Q439 36 386 11T271 -14Q159 -14 117 40Q99 63 90 87T81 142Q81 192 107 288L164 502Q172 536 172 550Q172 572 158 579T105 588L111 608Q151 605 240 605Q317 605 365 608L359
588Q322 586 305 580T277 557T256 502L194 271Q172 186 172 136Q172 81 199 51T290 21Q395 21 455 89T548 280L605 492Q612 517 612 537Q612 564 595 575T538 588L543 608Q579 605 644 605Q705 605 738 608L733 588Q688 586 665 566T627 492L574 291Q538 153 476
79ZM296 747T316 767T363 788Q384 788 398 774T413 738Q413 713 393 693T346 672Q324 672 310 686T296 723Q296 747 316 767ZM508 747T528 767T575 788Q596 788 610 774T625 738Q625 713 605 693T558 672Q536 672 522 686T508 723Q508 747 528 767Z" />
<glyph unicode="&#xfd;" glyph-name="yacute" horiz-adv-x="638" d="M672 622T685 607T699 569Q699 544 684 522T640 499Q620 499 611 510T602 539Q602 554 611 571T634 601H631Q606 600 576 579Q526 541 469 466T360 273L317 106Q308 68 308 57Q308 36 322 29T376
20L371 0Q326 3 247 3Q160 3 116 0L121 20Q157 22 175 28T204 51T224 106L272 290Q259 410 237 488T178 567Q161 567 150 556T130 520L102 438H80L113 535Q129 582 149 602T211 622Q252 622 277 593T317 510T347 360L355 311Q425 462 525 561Q551 587 582 604T643
622Q672 622 685 607ZM386 712T421 738T468 773Q517 811 540 825Q558 836 578 836Q599 836 606 820Q608 814 608 810Q608 797 598 786T573 766Q554 755 527 745T494 732Q407 699 351 672L344 683Q386 712 421 738Z" />
<glyph unicode="&#xfe;" glyph-name="thorn" horiz-adv-x="591" d="M168 106Q159 68 159 57Q159 36 173 29T227 20L223 0Q177 3 96 3Q13 3 -31 0L-26 20Q9 22 26 28T54 51T75 106L180 502Q188 536 188 550Q188 572 174 579T121 588L126 608Q167 605 253 605Q333
605 381 608L376 588Q339 586 322 580T294 557T273 502L269 487L365 488Q463 488 513 453T564 357Q564 291 518 238T388 155T197 125H173L168 106ZM178 145H207Q342 145 402 207T463 373Q463 422 433 445T336 469Q283 469 264 468L178 145Z" />
<glyph unicode="&#xff;" glyph-name="ydieresis" horiz-adv-x="638" d="M672 622T685 607T699 569Q699 544 684 522T640 499Q620 499 611 510T602 539Q602 554 611 571T634 601H631Q606 600 576 579Q526 541 469 466T360 273L317 106Q308 68 308 57Q308 36 322
29T376 20L371 0Q326 3 247 3Q160 3 116 0L121 20Q157 22 175 28T204 51T224 106L272 290Q259 410 237 488T178 567Q161 567 150 556T130 520L102 438H80L113 535Q129 582 149 602T211 622Q252 622 277 593T317 510T347 360L355 311Q425 462 525 561Q551 587 582
604T643 622Q672 622 685 607ZM271 747T291 767T338 788Q359 788 373 774T388 738Q388 713 368 693T321 672Q299 672 285 686T271 723Q271 747 291 767ZM483 747T503 767T550 788Q571 788 585 774T600 738Q600 713 580 693T533 672Q511 672 497 686T483 723Q483
747 503 767Z" />
<glyph unicode="&#x2013;" glyph-name="endash" horiz-adv-x="743" d="M677 316L666 276H66L76 316H677Z" />
<glyph unicode="&#x2014;" glyph-name="emdash" horiz-adv-x="1019" d="M952 315L941 275H67L77 315H952Z" />
<glyph unicode="&#x2018;" glyph-name="quoteleft" horiz-adv-x="239" d="M123 592T162 643T270 728L275 714Q228 685 200 651T169 583Q198 608 221 608Q239 608 249 599T259 573Q259 552 246 530T211 494T167 480Q145 480 134 497T123 539Q123 592 162 643Z" />
<glyph unicode="&#x2019;" glyph-name="quoteright" horiz-adv-x="240" d="M277 598T238 547T130 462L125 476Q172 505 200 539T231 607Q202 582 179 582Q161 582 151 591T141 617Q141 638 154 660T189 696T233 710Q255 710 266 693T277 651Q277 598 238 547Z" />
<glyph unicode="&#x201a;" glyph-name="quotesinglbase" horiz-adv-x="252" d="M129 2T90 -49T-18 -134L-23 -120Q24 -91 52 -57T83 11Q54 -14 31 -14Q13 -14 3 -5T-7 21Q-7 42 6 64T41 100T85 114Q107 114 118 97T129 55Q129 2 90 -49Z" />
<glyph unicode="&#x201c;" glyph-name="quotedblleft" horiz-adv-x="399" d="M290 593T329 644T437 729L442 715Q395 686 367 652T336 584Q365 609 388 609Q401 609 408 600T416 574Q416 553 404 531T373 495T334 481Q290 481 290 540Q290 593 329 644ZM124 593T163
644T271 729L276 715Q229 686 201 652T170 584Q199 609 222 609Q235 609 242 600T250 574Q250 553 238 531T207 495T168 481Q124 481 124 540Q124 593 163 644Z" />
<glyph unicode="&#x201d;" glyph-name="quotedblright" horiz-adv-x="401" d="M273 601T234 550T126 465L121 479Q168 508 196 542T227 610Q198 585 175 585Q162 585 155 594T147 620Q147 641 159 663T190 699T229 713Q273 713 273 654Q273 601 234 550ZM439 601T400
550T292 465L287 479Q334 508 362 542T393 610Q364 585 341 585Q328 585 321 594T313 620Q313 641 325 663T356 699T395 713Q439 713 439 654Q439 601 400 550Z" />
<glyph unicode="&#x201e;" glyph-name="quotedblbase" horiz-adv-x="409" d="M120 2T81 -49T-27 -134L-32 -120Q15 -91 43 -57T74 11Q45 -14 22 -14Q9 -14 2 -5T-6 21Q-6 42 6 64T37 100T76 114Q120 114 120 55Q120 2 81 -49ZM286 2T247 -49T139 -134L134 -120Q181
-91 209 -57T240 11Q211 -14 188 -14Q175 -14 168 -5T160 21Q160 42 172 64T203 100T242 114Q286 114 286 55Q286 2 247 -49Z" />
<glyph unicode="&#x2022;" glyph-name="bullet" horiz-adv-x="448" d="M84 334T106 370T164 428T242 450Q297 450 334 414T371 323Q371 281 349 245T291 187T213 165Q158 165 121 201T84 292Q84 334 106 370Z" />
<glyph unicode="&#x2039;" glyph-name="guilsinglleft" horiz-adv-x="361" d="M155 274T188 195T234 50H216Q144 220 48 307V309Q130 356 201 418T344 562H362Q326 500 254 422T123 308Q155 274 188 195Z" />
<glyph unicode="&#x203a;" glyph-name="guilsinglright" horiz-adv-x="358" d="M223 390T319 304V303Q237 256 166 194T23 50H5Q41 112 113 190T244 304Q212 338 179 417T133 562H151Q223 390 319 304Z" />
</font>
</defs>
</svg>
